<svg width="238" height="244" viewBox="0 0 238 244" fill="none" xmlns="http://www.w3.org/2000/svg">
<g filter="url(#filter0_d_791_1173)">
<path d="M17.4023 1.50098H17.4414C20.3732 1.51127 23.3222 2.62887 25.6113 4.84277L25.832 5.06152C28.3081 7.58093 29.4535 10.9384 29.291 14.2637L29.2588 14.9199L29.7188 15.3877L63.7842 50.0488L64.8535 51.1377L65.9238 50.0488L95.2041 20.2559L87.1855 44.3213L79.1143 52.5615L78.084 53.6133L79.1162 54.6631L117.553 93.7725L118.623 94.8613L119.692 93.7725L158.13 54.6631L159.163 53.6113L158.13 52.5605L150.004 44.292L141.985 20.2031L171.295 50.0488L172.364 51.1377L173.435 50.0498L207.445 15.4717L207.91 14.999L207.874 14.3379C207.697 11.1019 208.788 7.81747 211.129 5.30273L211.359 5.06152C213.691 2.68963 216.728 1.50098 219.765 1.50098C222.707 1.501 225.649 2.61656 227.949 4.84277L228.169 5.06152C232.759 9.73225 232.831 17.2549 228.385 22.0146L228.169 22.2393C225.67 24.7813 222.352 25.9599 219.094 25.7754L218.416 25.7373L217.939 26.2217L183.929 60.7998L182.895 61.8516L183.929 62.9033L213.359 92.8486L189.708 84.6904L181.587 76.4277L180.518 75.3389L179.447 76.4277L141.011 115.537L139.977 116.589L141.011 117.641L223.084 201.149L227.39 227.334L201.734 222.963L119.639 139.459L118.569 138.371L117.499 139.46L35.4844 222.908L9.83203 227.279L14.1602 201.151L96.21 117.668L97.2432 116.616L96.209 115.565L57.7451 76.4551L56.6758 75.3682L55.6055 76.4561L47.5117 84.6904L23.8613 92.8486L53.2383 62.958L54.2715 61.9072L53.2383 60.8555L19.2285 26.2227L18.752 25.7383L18.0732 25.7764C14.9171 25.9552 11.7035 24.8546 9.23438 22.4746L8.99707 22.2402C4.40693 17.5694 4.33549 10.0467 8.78223 5.28711L8.99707 5.0625C11.3284 2.69059 14.3653 1.50098 17.4023 1.50098Z" fill="url(#paint0_linear_791_1173)" stroke="url(#paint1_linear_791_1173)" stroke-width="3"/>
<path d="M71.5582 127.061L65.5133 135.468L35.6667 115.731L65.5133 95.9942L71.5582 104.035L53.4235 115.731L71.5582 127.061Z" fill="url(#paint2_linear_791_1173)" stroke="url(#paint3_linear_791_1173)" stroke-width="2"/>
<path d="M166.442 127.061L172.487 135.468L202.333 115.731L172.487 95.9942L166.442 104.035L184.576 115.731L166.442 127.061Z" fill="url(#paint4_linear_791_1173)" stroke="url(#paint5_linear_791_1173)" stroke-width="2"/>
<path d="M102.407 198.333H91.6041L111.72 154.474H122.15L102.407 198.333Z" fill="url(#paint6_linear_791_1173)" stroke="url(#paint7_linear_791_1173)" stroke-width="2"/>
<path d="M121.803 76.8596H111L121.058 54.9298L131.116 33H141.546L121.803 76.8596Z" fill="url(#paint8_linear_791_1173)" stroke="url(#paint9_linear_791_1173)" stroke-width="2"/>
<path d="M178.584 231.138C178.928 231.705 178.584 231.752 178.369 231.705C177.222 230.911 174.641 230.665 173.493 230.642V230.075C173.78 229.848 174.091 229.271 174.21 229.011V208.026C174.258 208.05 174.382 208.083 174.497 208.026C174.612 207.969 174.545 207.861 174.497 207.813C174.44 207.587 173.469 206.585 172.991 206.112V205.757H177.795L181.165 216.675L184.177 207.034V206.537C184.177 206.254 183.89 206.183 183.747 206.183V205.757H189.196V206.183C188.814 206.679 188.034 207.714 187.977 207.884C187.92 208.054 188.049 208.05 188.12 208.026V209.231C188.12 210.025 188.168 212.896 188.192 214.233V220.646C188.192 220.816 188.24 222.418 188.264 223.198V226.601V229.295V231.776C188.216 232.296 188.135 233.435 188.192 233.832C188.25 234.229 188.694 234.801 188.909 235.037C189.139 235.661 188.861 235.723 188.694 235.675C186.471 233.761 184.392 232.627 184.177 232.414C183.962 232.201 184.32 232.06 184.464 231.705C184.578 231.422 184.559 222.134 184.535 217.526C184.306 219.171 182.265 223.434 181.237 225.396C180.098 224.945 178.533 219.886 177.88 217.364C178.044 218.202 178.131 226.449 178.154 230.571C178.154 230.524 178.24 230.571 178.584 231.138Z" fill="url(#paint10_linear_791_1173)"/>
<path d="M164.961 229.862C163.24 229.465 160.467 229.697 159.296 229.862V229.295H159.44C159.87 229.011 160.085 228.444 160.157 228.352C160.214 228.279 160.181 219.45 160.157 215.045C160.228 214.832 160.157 207.672 160.157 207.175C160.157 206.778 159.583 206.348 159.296 206.183V205.687H164.602C164.66 205.687 164.626 205.899 164.602 206.041C164.373 206.325 164.268 206.585 164.244 206.679V216.108H167.972V206.679C167.972 206.452 167.494 206.159 167.255 206.041V205.757H172.346C172.633 205.757 172.705 205.852 172.705 205.899C172.303 206.41 172.107 207.057 172.059 207.317C172.002 207.601 172.083 221.473 172.131 228.373C172.188 228.713 172.25 228.94 172.274 229.011C172.332 229.352 172.92 230.004 173.206 230.287C173.436 230.854 173.015 230.807 172.776 230.713C172.088 230.372 169.143 230.098 167.757 230.004C167.585 230.004 167.494 229.909 167.47 229.862C167.241 229.862 167.853 229.295 168.187 229.011V220.22H164.387V228.657C164.846 229.394 164.961 229.767 164.961 229.862Z" fill="url(#paint11_linear_791_1173)"/>
<path d="M156.428 229.578H150.405V229.153H150.549C150.664 229.096 151.027 228.562 151.194 228.302V210.295C151.366 210.181 151.577 209.728 151.696 209.515H148.756C147.781 209.969 147.251 210.649 147.107 210.933H146.749C147.059 209.846 147.652 207.572 147.537 207.175C147.423 206.778 146.916 206.254 146.677 206.041V205.687H159.081V206.041C158.565 206.495 158.436 207.128 158.436 207.388C158.436 209.373 158.866 210.366 159.01 210.933C159.124 211.387 158.866 211.405 158.723 211.358C158.269 210.815 157.274 209.699 156.93 209.586C156.586 209.472 155.687 209.539 155.281 209.586V227.452C155.281 228.075 155.52 228.42 155.64 228.515C155.984 229.025 156.309 229.437 156.428 229.578Z" fill="url(#paint12_linear_791_1173)"/>
<path d="M144.813 229.649H138.933C139.048 229.593 139.65 228.94 139.937 228.515V207.53C139.937 206.793 139.268 206.23 138.933 206.041V205.687H144.454C144.569 205.743 144.167 206.325 143.952 206.608L144.167 228.586C144.454 229.38 144.717 229.626 144.813 229.649Z" fill="url(#paint13_linear_791_1173)"/>
<path d="M135.635 207.403V217.738C134.918 218.281 133.472 219.396 133.412 219.511C133.355 219.624 133.388 219.7 133.412 219.724C134.105 220.669 135.534 223.524 135.706 227.381C135.73 227.452 135.807 227.607 135.922 227.664L137.069 229.578H131.477C131.667 227.691 131.505 223.271 129.337 220.66C129.165 220.892 128.694 221.369 128.178 221.426V228.586C128.178 228.61 128.207 228.671 128.321 228.728C128.436 228.784 128.608 229.318 128.68 229.578H123.445V229.295C123.421 229.224 123.431 229.026 123.66 228.799C123.89 228.572 124.043 228.09 124.091 227.877V207.814C124.21 207.837 124.464 207.87 124.521 207.814C124.578 207.757 124.545 207.696 124.521 207.672L122.729 206.112V205.687H133.627L135.635 207.403ZM128.034 209.232V217.242C128.727 216.959 130.415 216.364 131.619 216.25L131.691 209.232H128.034Z" fill="url(#paint14_linear_791_1173)"/>
<path fill-rule="evenodd" clip-rule="evenodd" d="M110.109 227.735L111.902 229.507H119.502L121.653 227.735V207.388L119.86 205.687H111.902L110.109 207.388V227.735ZM117.853 209.373L117.638 225.679H115.881H114.124V209.373H117.853Z" fill="url(#paint15_linear_791_1173)"/>
<path d="M98.6367 229.578H108.747C108.89 229.602 109.134 229.564 108.962 229.224C108.388 228.77 108.34 228.231 108.388 228.019V217.243C108.388 216.789 108.627 216.108 108.747 215.825C107.485 216.165 104.253 216.108 102.795 216.037C103.14 217.115 102.939 219.275 102.795 220.22C103.197 219.88 104.158 219.937 104.588 220.007V225.537H101.146V209.373H104.588V212.563C105.678 212.337 107.576 212.469 108.388 212.563V207.175L106.596 205.545H98.9952L96.7725 207.388V227.381L98.6367 229.578Z" fill="url(#paint16_linear_791_1173)"/>
<path d="M94.9082 207.687V218.022C94.1919 218.565 92.7456 219.679 92.6855 219.794C92.6282 219.908 92.6616 219.984 92.6855 220.007C93.3786 220.953 94.8074 223.808 94.9795 227.664C95.0034 227.735 95.0806 227.891 95.1953 227.948L96.3428 229.862H90.75C90.9408 227.975 90.7784 223.555 88.6103 220.944C88.4388 221.175 87.9673 221.653 87.4511 221.709V228.87C87.4513 228.893 87.4802 228.955 87.5947 229.011C87.7094 229.068 87.8814 229.602 87.9531 229.862H82.7187V229.579C82.6948 229.508 82.7045 229.309 82.9336 229.082C83.163 228.856 83.3164 228.373 83.3642 228.161V208.097C83.4837 208.121 83.7375 208.154 83.7949 208.097C83.8517 208.041 83.8187 207.979 83.7949 207.956L82.0019 206.396V205.97H92.9004L94.9082 207.687ZM87.3076 209.515V217.526C88.0006 217.242 89.688 216.647 90.8926 216.534L90.9648 209.515H87.3076Z" fill="url(#paint17_linear_791_1173)"/>
<path d="M78.3454 205.828C78.288 207.7 79.5643 215.517 80.2097 219.156C80.3817 221.652 81.5242 222.938 82.0739 223.269C82.1882 223.269 82.1217 223.647 82.0739 223.836C81.5577 223.723 81.1411 223.789 80.9977 223.836C81.0695 226.529 81.6428 228.088 81.6432 228.302C81.6432 228.472 82.121 229.082 82.36 229.365V229.862C80.9259 229.862 78.2254 229.909 77.0544 229.933C76.9975 229.932 77.2695 229.318 77.4128 229.011C77.47 228.727 77.2461 226.199 77.1266 224.97C74.488 225.31 72.9196 225.774 72.4655 225.963C72.1789 227.026 72.0353 228.373 71.9636 228.656C71.9062 228.883 72.2269 229.413 72.3942 229.65C69.6982 229.593 67.3509 229.862 66.5143 230.004L67.446 229.011C68.5932 227.253 68.6417 225.017 68.5222 224.119C68.6368 223.722 67.8523 223.623 67.446 223.623V223.056C67.5177 223.056 67.7763 223.028 68.235 222.914C68.6939 222.801 69.3344 221.261 69.5974 220.504C70.7446 216.591 71.414 211.075 71.6052 208.806H71.9636C72.5849 208.924 73.8993 209.118 74.1862 208.948C74.473 208.777 72.2504 206.797 71.1032 205.828H78.3454ZM75.3337 210.791C74.5306 213.173 73.7088 218.968 73.3981 221.568C73.8763 221.449 75.1473 221.184 76.4089 221.071C76.1938 218.967 75.6778 213.967 75.3337 210.791Z" fill="url(#paint18_linear_791_1173)"/>
<path d="M55.1138 230.854C52.5325 231.989 50.4532 233.596 49.7361 234.257L49.5927 234.116L49.8078 233.478L50.0947 232.414L50.1664 230.571L49.7361 227.168C49.5688 225.537 48.9618 219.369 47.8719 207.743C47.9866 207.516 46.8681 206.466 46.2945 205.97H51.9589C51.8289 205.97 51.6004 206.452 51.457 206.75C51.3136 206.807 52.3174 216.945 52.891 222.191C52.9627 222.191 54.9704 212.091 56.1176 207.034C56.175 206.807 55.4962 206.23 55.1138 205.97H60.4197C60.2285 206.136 59.8174 206.509 59.7027 206.679C59.5903 206.846 61.1654 216.547 62.0162 221.676C62.0609 219.937 63.7284 211.484 64.6501 207.034C64.478 206.693 64.0048 206.183 63.7897 205.97H69.3107C68.9283 206.348 68.1348 207.275 68.0201 207.955C67.9054 208.636 66.2992 218.211 65.5105 222.914C65.1998 224.545 64.5784 228.033 64.5784 228.94C64.5784 229.848 64.7696 230.122 64.8652 230.146C61.5956 230.372 59.9178 231.233 59.4876 231.634V230.854L57.5516 216.534L55.1138 230.854Z" fill="url(#paint19_linear_791_1173)"/>
</g>
<defs>
<filter id="filter0_d_791_1173" x="0" y="0" width="237.167" height="243.688" filterUnits="userSpaceOnUse" color-interpolation-filters="sRGB">
<feFlood flood-opacity="0" result="BackgroundImageFix"/>
<feColorMatrix in="SourceAlpha" type="matrix" values="0 0 0 0 0 0 0 0 0 0 0 0 0 0 0 0 0 0 127 0" result="hardAlpha"/>
<feOffset dy="4"/>
<feGaussianBlur stdDeviation="2"/>
<feComposite in2="hardAlpha" operator="out"/>
<feColorMatrix type="matrix" values="0 0 0 0 0 0 0 0 0 0 0 0 0 0 0 0 0 0 0.25 0"/>
<feBlend mode="normal" in2="BackgroundImageFix" result="effect1_dropShadow_791_1173"/>
<feBlend mode="normal" in="SourceGraphic" in2="effect1_dropShadow_791_1173" result="shape"/>
</filter>
<linearGradient id="paint0_linear_791_1173" x1="118.583" y1="0" x2="118.583" y2="229.167" gradientUnits="userSpaceOnUse">
<stop/>
<stop offset="0.5"/>
<stop offset="0.7"/>
<stop offset="0.89" stop-color="#C769E6"/>
<stop offset="1" stop-color="#CE5DDA"/>
</linearGradient>
<linearGradient id="paint1_linear_791_1173" x1="118.583" y1="0" x2="118.583" y2="229.167" gradientUnits="userSpaceOnUse">
<stop stop-color="#0CCAFF"/>
<stop offset="0.5" stop-color="#BF75F1"/>
<stop offset="1" stop-color="#CE5DDA"/>
</linearGradient>
<linearGradient id="paint2_linear_791_1173" x1="53.6124" y1="95.9942" x2="53.6124" y2="135.468" gradientUnits="userSpaceOnUse">
<stop stop-color="#0CCAFF"/>
<stop offset="0.5" stop-color="#BF75F1"/>
<stop offset="1" stop-color="#CE5DDA"/>
</linearGradient>
<linearGradient id="paint3_linear_791_1173" x1="53.6124" y1="95.9942" x2="53.6124" y2="135.468" gradientUnits="userSpaceOnUse">
<stop stop-color="#0CCAFF"/>
<stop offset="0.5" stop-color="#BF75F1"/>
<stop offset="1" stop-color="#CE5DDA"/>
</linearGradient>
<linearGradient id="paint4_linear_791_1173" x1="184.388" y1="95.9942" x2="184.388" y2="135.468" gradientUnits="userSpaceOnUse">
<stop stop-color="#0CCAFF"/>
<stop offset="0.5" stop-color="#BF75F1"/>
<stop offset="1" stop-color="#CE5DDA"/>
</linearGradient>
<linearGradient id="paint5_linear_791_1173" x1="184.388" y1="95.9942" x2="184.388" y2="135.468" gradientUnits="userSpaceOnUse">
<stop stop-color="#0CCAFF"/>
<stop offset="0.5" stop-color="#BF75F1"/>
<stop offset="1" stop-color="#CE5DDA"/>
</linearGradient>
<linearGradient id="paint6_linear_791_1173" x1="106.877" y1="154.474" x2="106.877" y2="198.333" gradientUnits="userSpaceOnUse">
<stop stop-color="#0CCAFF"/>
<stop offset="0.2" stop-color="#BF75F1"/>
<stop offset="1" stop-color="#CE5DDA"/>
</linearGradient>
<linearGradient id="paint7_linear_791_1173" x1="106.877" y1="154.474" x2="106.877" y2="198.333" gradientUnits="userSpaceOnUse">
<stop stop-color="#0CCAFF"/>
<stop offset="0.2" stop-color="#BF75F1"/>
<stop offset="1" stop-color="#CE5DDA"/>
</linearGradient>
<linearGradient id="paint8_linear_791_1173" x1="126.273" y1="33" x2="126.273" y2="76.8596" gradientUnits="userSpaceOnUse">
<stop stop-color="#0CCAFF"/>
<stop offset="0.8" stop-color="#BF75F1"/>
<stop offset="1" stop-color="#CE5DDA"/>
</linearGradient>
<linearGradient id="paint9_linear_791_1173" x1="126.273" y1="33" x2="126.273" y2="76.8596" gradientUnits="userSpaceOnUse">
<stop stop-color="#0CCAFF"/>
<stop offset="0.8" stop-color="#BF75F1"/>
<stop offset="1" stop-color="#CE5DDA"/>
</linearGradient>
<linearGradient id="paint10_linear_791_1173" x1="181.115" y1="239.976" x2="182.341" y2="202.768" gradientUnits="userSpaceOnUse">
<stop stop-color="#CE5DDA"/>
<stop offset="0.504808" stop-color="#CE5DDA"/>
<stop offset="1" stop-color="#0CCAFF"/>
</linearGradient>
<linearGradient id="paint11_linear_791_1173" x1="166.303" y1="234.364" x2="167.301" y2="203.179" gradientUnits="userSpaceOnUse">
<stop stop-color="#CE5DDA"/>
<stop offset="0.504808" stop-color="#CE5DDA"/>
<stop offset="1" stop-color="#0CCAFF"/>
</linearGradient>
<linearGradient id="paint12_linear_791_1173" x1="152.895" y1="233.001" x2="153.916" y2="203.303" gradientUnits="userSpaceOnUse">
<stop stop-color="#CE5DDA"/>
<stop offset="0.504808" stop-color="#CE5DDA"/>
<stop offset="1" stop-color="#0CCAFF"/>
</linearGradient>
<linearGradient id="paint13_linear_791_1173" x1="141.88" y1="233.082" x2="144.037" y2="203.417" gradientUnits="userSpaceOnUse">
<stop stop-color="#CE5DDA"/>
<stop offset="0.504808" stop-color="#CE5DDA"/>
<stop offset="1" stop-color="#0CCAFF"/>
</linearGradient>
<linearGradient id="paint14_linear_791_1173" x1="129.917" y1="233.001" x2="130.8" y2="203.294" gradientUnits="userSpaceOnUse">
<stop stop-color="#CE5DDA"/>
<stop offset="0.504808" stop-color="#CE5DDA"/>
<stop offset="1" stop-color="#0CCAFF"/>
</linearGradient>
<linearGradient id="paint15_linear_791_1173" x1="115.896" y1="232.92" x2="116.986" y2="203.315" gradientUnits="userSpaceOnUse">
<stop stop-color="#CE5DDA"/>
<stop offset="0.504808" stop-color="#CE5DDA"/>
<stop offset="1" stop-color="#0CCAFF"/>
</linearGradient>
<linearGradient id="paint16_linear_791_1173" x1="102.912" y1="233.028" x2="103.959" y2="203.148" gradientUnits="userSpaceOnUse">
<stop stop-color="#CE5DDA"/>
<stop offset="0.504808" stop-color="#CE5DDA"/>
<stop offset="1" stop-color="#0CCAFF"/>
</linearGradient>
<linearGradient id="paint17_linear_791_1173" x1="89.1908" y1="233.285" x2="90.0738" y2="203.577" gradientUnits="userSpaceOnUse">
<stop stop-color="#CE5DDA"/>
<stop offset="0.504808" stop-color="#CE5DDA"/>
<stop offset="1" stop-color="#0CCAFF"/>
</linearGradient>
<linearGradient id="paint18_linear_791_1173" x1="74.4576" y1="233.468" x2="75.276" y2="203.403" gradientUnits="userSpaceOnUse">
<stop stop-color="#CE5DDA"/>
<stop offset="0.504808" stop-color="#CE5DDA"/>
<stop offset="1" stop-color="#0CCAFF"/>
</linearGradient>
<linearGradient id="paint19_linear_791_1173" x1="57.8323" y1="238.31" x2="58.6038" y2="203.123" gradientUnits="userSpaceOnUse">
<stop stop-color="#CE5DDA"/>
<stop offset="0.504808" stop-color="#CE5DDA"/>
<stop offset="1" stop-color="#0CCAFF"/>
</linearGradient>
</defs>
</svg>
