<svg width="230" height="230" viewBox="0 0 230 230" fill="none" xmlns="http://www.w3.org/2000/svg">
<rect width="229" height="230" fill="#D4DCC7"/>
<path d="M4.99732 5.06253C7.32861 2.69062 10.365 1.50123 13.4021 1.50123H13.5698C16.5543 1.54462 19.5464 2.73561 21.8321 5.06126C24.3082 7.58068 25.4531 10.938 25.2906 14.2633L25.2586 14.9195L25.719 15.388L59.784 50.0488L60.8538 51.1373L61.9236 50.0488L91.2044 20.2558L83.1855 44.3226L75.114 52.5619L74.0841 53.6133L75.1157 54.663L113.553 93.7727L114.623 94.8612L115.693 93.7727L154.13 54.663L155.163 53.6116L154.13 52.5602L146.006 44.294L137.986 20.2038L167.295 50.049L168.365 51.1379L169.435 50.0498L203.445 15.4716L203.91 14.9993L203.874 14.3378C203.691 10.9973 204.86 7.60564 207.36 5.06191C209.691 2.69 212.727 1.50062 215.765 1.50062C218.802 1.50062 221.838 2.69001 224.169 5.06185C228.832 9.80684 228.832 17.495 224.169 22.2396C221.671 24.7817 218.351 25.9604 215.094 25.7758L214.416 25.7374L213.939 26.2216L179.929 60.7998L178.895 61.8512L179.928 62.903L209.36 92.849L185.708 84.6903L177.587 76.4278L176.517 75.3393L175.448 76.4278L137.01 115.537L135.977 116.589L137.01 117.64L219.085 201.151L223.39 227.335L197.735 222.963L115.639 139.459L114.569 138.371L113.499 139.46L31.485 222.909L5.8321 227.28L10.161 201.152L92.2096 117.668L93.2433 116.617L92.2093 115.565L53.7452 76.4555L52.6754 75.3678L51.6059 76.4559L43.5125 84.6909L19.8606 92.8496L49.2383 62.9581L50.2712 61.9071L49.2387 60.8557L15.2281 26.223L14.7518 25.738L14.0731 25.7764C10.815 25.961 7.49573 24.7824 4.99738 22.2403C0.334193 17.4953 0.334195 9.80722 4.99732 5.06253ZM4.99732 5.06253L3.92935 4.01285L4.99732 5.06253Z" fill="black" stroke="#4C6890" stroke-width="3"/>
<path d="M67.5582 127.061L61.5133 135.468L31.6667 115.731L61.5133 95.9942L67.5582 104.035L49.4235 115.731L67.5582 127.061Z" fill="#FF00E0" stroke="#FF00E0"/>
<path d="M162.442 127.061L168.487 135.468L198.333 115.731L168.487 95.9942L162.442 104.035L180.576 115.731L162.442 127.061Z" fill="#FF00E0" stroke="#FF00E0"/>
<path d="M98.4069 198.333H87.6041L107.72 154.474H118.15L98.4069 198.333Z" fill="#FF00E0" stroke="#FF00E0"/>
<path d="M119.136 75.5263H108.333L128.449 31.6667H138.879L119.136 75.5263Z" fill="#FF00E0" stroke="#FF00E0"/>
<path d="M52.9055 199.432C53.0051 198.596 51.2878 196.104 50.4167 195.079V194.208V194.092V193.57H171.25C170.055 195.567 169.093 197.42 168.761 198.097C168.014 203.112 169.072 216.943 169.694 223.231C121.809 214.222 71.5511 219.477 52.4077 223.231C53.3535 215.151 53.2996 203.07 52.9055 199.432Z" fill="#D4DCC7"/>
<path d="M158.832 216.314C159.109 216.756 158.832 216.793 158.658 216.756C157.734 216.137 155.655 215.945 154.731 215.926V215.484C154.962 215.306 155.212 214.856 155.308 214.653V198.273C155.347 198.292 155.447 198.318 155.539 198.273C155.632 198.229 155.578 198.144 155.539 198.107C155.493 197.93 154.711 197.148 154.326 196.779V196.503H158.196L160.911 205.025L163.337 197.499V197.111C163.337 196.89 163.106 196.835 162.99 196.835V196.503H167.38V196.835C167.072 197.222 166.444 198.03 166.398 198.163C166.352 198.296 166.456 198.292 166.514 198.273V199.214C166.514 199.834 166.552 202.075 166.571 203.118V208.124C166.571 208.256 166.61 209.507 166.629 210.116V212.772V214.875V216.812C166.591 217.217 166.525 218.107 166.571 218.416C166.618 218.726 166.976 219.173 167.149 219.357C167.334 219.844 167.111 219.892 166.976 219.855C165.185 218.361 163.51 217.476 163.337 217.31C163.164 217.144 163.452 217.033 163.568 216.756C163.66 216.535 163.645 209.286 163.626 205.689C163.441 206.973 161.797 210.3 160.969 211.831C160.051 211.479 158.791 207.531 158.264 205.562C158.396 206.216 158.466 212.653 158.485 215.871C158.485 215.834 158.554 215.871 158.832 216.314Z" fill="#FF00E0"/>
<path d="M147.857 215.318C146.471 215.008 144.238 215.188 143.294 215.318V214.875H143.41C143.756 214.653 143.93 214.211 143.987 214.139C144.034 214.082 144.007 207.19 143.987 203.752C144.045 203.586 143.987 197.997 143.987 197.609C143.987 197.3 143.525 196.964 143.294 196.835V196.447H147.569C147.615 196.447 147.588 196.613 147.569 196.724C147.384 196.945 147.299 197.148 147.28 197.222V204.582H150.283V197.222C150.283 197.045 149.898 196.816 149.706 196.724V196.503H153.807C154.038 196.503 154.095 196.576 154.095 196.613C153.772 197.012 153.614 197.517 153.576 197.72C153.529 197.941 153.595 208.769 153.633 214.155C153.68 214.421 153.73 214.598 153.749 214.653C153.795 214.919 154.269 215.428 154.5 215.65C154.685 216.092 154.346 216.055 154.153 215.982C153.599 215.716 151.227 215.502 150.11 215.428C149.971 215.428 149.898 215.354 149.879 215.318C149.694 215.318 150.187 214.875 150.457 214.653V207.792H147.395V214.377C147.765 214.952 147.857 215.244 147.857 215.318Z" fill="#FF00E0"/>
<path d="M140.984 215.096H136.132V214.764H136.248C136.34 214.72 136.633 214.303 136.767 214.1V200.044C136.906 199.956 137.076 199.602 137.172 199.436H134.804C134.018 199.79 133.591 200.321 133.475 200.542H133.186C133.437 199.694 133.914 197.919 133.822 197.609C133.729 197.3 133.321 196.89 133.129 196.724V196.447H143.121V196.724C142.705 197.078 142.601 197.573 142.601 197.775C142.601 199.325 142.948 200.1 143.063 200.542C143.156 200.896 142.948 200.911 142.832 200.874C142.466 200.45 141.665 199.579 141.388 199.491C141.111 199.402 140.387 199.454 140.06 199.491V213.436C140.06 213.923 140.252 214.192 140.349 214.266C140.626 214.665 140.888 214.986 140.984 215.096Z" fill="#FF00E0"/>
<path d="M131.627 215.152H126.891C126.983 215.107 127.468 214.598 127.699 214.266V197.886C127.699 197.311 127.16 196.872 126.891 196.724V196.447H131.338C131.43 196.492 131.107 196.945 130.934 197.167L131.107 214.321C131.338 214.941 131.55 215.133 131.627 215.152Z" fill="#FF00E0"/>
<path d="M89.6355 207.46C89.5893 207.548 89.6163 207.607 89.6355 207.626C90.1939 208.363 91.3452 210.592 91.4838 213.602C91.5031 213.657 91.5647 213.779 91.6571 213.823L92.5813 215.318H88.076C88.2298 213.845 88.0996 210.394 86.353 208.356C86.215 208.537 85.8349 208.909 85.4191 208.954V214.543C85.4191 214.561 85.4422 214.609 85.5346 214.653C85.627 214.698 85.7656 215.115 85.8234 215.318H81.6069V215.096C81.5877 215.041 81.5954 214.886 81.7802 214.709C81.965 214.532 82.0883 214.155 82.1268 213.989V198.329C82.223 198.347 82.4271 198.373 82.4733 198.329C82.5195 198.285 82.4926 198.237 82.4733 198.218L81.0293 197.001V196.669H89.8088L91.4261 198.009V206.076C90.8485 206.5 89.6817 207.371 89.6355 207.46Z" fill="#FF00E0"/>
<path d="M88.1915 204.914C87.2212 205.003 85.8619 205.467 85.3035 205.689V199.436H88.2493L88.1915 204.914Z" fill="#D4DCC7"/>
<path fill-rule="evenodd" clip-rule="evenodd" d="M103.671 213.657L105.115 215.041H111.238L112.97 213.657V197.775L111.526 196.447H105.115L103.671 197.775V213.657ZM109.909 199.325L109.736 212.053H108.321H106.906V199.325H109.909Z" fill="#FF00E0"/>
<path d="M94.4295 215.096H102.574C102.689 215.115 102.886 215.085 102.747 214.819C102.285 214.465 102.246 214.045 102.285 213.879V205.467C102.285 205.113 102.477 204.582 102.574 204.361C101.557 204.626 98.9541 204.582 97.7796 204.527C98.0569 205.368 97.8951 207.054 97.7796 207.792C98.1031 207.526 98.877 207.57 99.2236 207.626V211.942H96.4511V199.325H99.2236V201.815C100.102 201.638 101.63 201.741 102.285 201.815V197.609L100.841 196.337H94.7183L92.9278 197.775V213.381L94.4295 215.096Z" fill="#FF00E0"/>
<path d="M122.443 207.238C122.397 207.327 122.424 207.386 122.443 207.404C123.001 208.142 124.153 210.37 124.291 213.381C124.311 213.436 124.372 213.558 124.465 213.602L125.389 215.096H120.884C121.037 213.623 120.907 210.173 119.161 208.135C119.023 208.316 118.642 208.688 118.227 208.732V214.321C118.227 214.34 118.25 214.388 118.342 214.432C118.435 214.476 118.573 214.893 118.631 215.096H114.414V214.875C114.395 214.82 114.403 214.665 114.588 214.487C114.773 214.31 114.896 213.934 114.934 213.768V198.107C115.031 198.126 115.235 198.152 115.281 198.107C115.327 198.063 115.3 198.015 115.281 197.997L113.837 196.779V196.447H122.616L124.234 197.788V205.855C123.656 206.279 122.489 207.15 122.443 207.238Z" fill="#FF00E0"/>
<path d="M120.999 204.693C120.029 204.781 118.669 205.246 118.111 205.467V199.214H121.057L120.999 204.693Z" fill="#D4DCC7"/>
<path d="M73.2895 215.152C71.1178 215.107 69.2271 215.318 68.5532 215.428L69.3041 214.653C70.2283 213.281 70.2668 211.536 70.1705 210.835C70.2629 210.525 69.6314 210.448 69.3041 210.448V210.005C69.3619 210.005 69.5698 209.983 69.9395 209.894C70.3091 209.806 70.8251 208.603 71.0369 208.013C71.961 204.958 72.5001 200.653 72.6542 198.882H72.943C73.4435 198.974 74.5025 199.126 74.7335 198.993C74.9646 198.86 73.174 197.314 72.2498 196.558H78.0836C78.0374 198.019 79.0655 204.121 79.5853 206.962C79.724 208.909 80.6443 209.913 81.0871 210.171C81.1795 210.171 81.1256 210.466 81.0871 210.614C80.6712 210.525 80.3362 210.577 80.2207 210.614C80.2784 212.717 80.7405 213.934 80.7405 214.1C80.7405 214.233 81.1256 214.709 81.3181 214.93V215.318C80.1629 215.318 77.9873 215.354 77.0439 215.373C76.9977 215.373 77.2172 214.893 77.3327 214.653C77.3789 214.432 77.1979 212.458 77.1017 211.499C74.9761 211.765 73.7131 212.126 73.3473 212.274C73.1162 213.104 73.0007 214.155 72.943 214.377C72.8968 214.554 73.1547 214.967 73.2895 215.152Z" fill="#FF00E0"/>
<path d="M75.6577 200.432C75.0107 202.291 74.3484 206.814 74.0981 208.843C74.4832 208.751 75.5075 208.544 76.5241 208.456C76.3508 206.814 75.9349 202.911 75.6577 200.432Z" fill="#D4DCC7"/>
<path d="M59.3694 216.092C57.2901 216.978 55.615 218.232 55.0375 218.748L54.9219 218.638L55.0952 218.14L55.3262 217.31L55.384 215.871L55.0375 213.215C54.9027 211.942 54.4136 207.128 53.5357 198.052C53.6281 197.875 52.7271 197.056 52.265 196.669H56.828C56.7233 196.669 56.5392 197.045 56.4237 197.277C56.3082 197.322 57.1168 205.235 57.5789 209.33C57.6366 209.33 59.2539 201.446 60.1781 197.499C60.2243 197.322 59.6775 196.872 59.3694 196.669H63.6436C63.4896 196.798 63.1585 197.089 63.0661 197.222C62.9755 197.352 64.2444 204.925 64.9297 208.928C64.9658 207.571 66.309 200.973 67.0515 197.499C66.9128 197.233 66.5316 196.835 66.3584 196.669H70.8059C70.4978 196.964 69.8586 197.687 69.7662 198.218C69.6738 198.749 68.3799 206.224 67.7446 209.894C67.4943 211.167 66.9937 213.89 66.9937 214.598C66.9937 215.306 67.1477 215.52 67.2248 215.539C64.5909 215.716 63.2393 216.387 62.8928 216.701V216.092L61.3333 204.914L59.3694 216.092Z" fill="#FF00E0"/>
</svg>
