<svg width="250" height="250" viewBox="0 0 250 250" fill="none" xmlns="http://www.w3.org/2000/svg">
<rect width="250" height="250" fill="#D4DCC7"/>
<path d="M23.4021 11.5012H23.5698C26.5543 11.5446 29.5464 12.7356 31.8321 15.0613C34.3082 17.5807 35.4531 20.938 35.2906 24.2633L35.2586 24.9195L35.719 25.388L69.784 60.0488L70.8538 61.1373L71.9236 60.0488L101.204 30.2558L93.1855 54.3226L85.114 62.5619L84.0841 63.6133L85.1157 64.663L123.553 103.773L124.623 104.861L125.693 103.773L164.13 64.663L165.163 63.6116L164.13 62.5602L156.006 54.294L147.986 30.2038L177.295 60.049L178.365 61.1379L179.435 60.0498L213.445 25.4716L213.91 24.9993L213.874 24.3378C213.691 20.9973 214.86 17.6056 217.36 15.0619C219.691 12.69 222.727 11.5006 225.765 11.5006C228.802 11.5006 231.838 12.69 234.169 15.0619C238.832 19.8068 238.832 27.495 234.169 32.2396C231.671 34.7817 228.351 35.9604 225.094 35.7758L224.416 35.7374L223.939 36.2216L189.929 70.7998L188.895 71.8512L189.928 72.903L219.36 102.849L195.708 94.6903L187.587 86.4278L186.517 85.3393L185.448 86.4278L147.01 125.537L145.977 126.589L147.01 127.64L229.085 211.151L233.39 237.335L207.735 232.963L125.639 149.459L124.569 148.371L123.499 149.46L41.485 232.909L15.8321 237.28L20.161 211.152L102.21 127.668L103.243 126.617L102.209 125.565L63.7452 86.4555L62.6754 85.3678L61.6059 86.4559L53.5125 94.6909L29.8606 102.85L59.2383 72.9581L60.2712 71.9071L59.2387 70.8557L25.2281 36.223L24.7518 35.738L24.0731 35.7764C20.815 35.961 17.4957 34.7824 14.9974 32.2403C10.3342 27.4953 10.3342 19.8072 14.9973 15.0625C17.3286 12.6906 20.365 11.5012 23.4021 11.5012Z" fill="black" stroke="#A4F9FE" stroke-width="3"/>
<path d="M77.5583 137.061L71.5134 145.468L41.6667 125.731L71.5134 105.994L77.5583 114.035L59.4236 125.731L77.5583 137.061Z" fill="#FF00E0" stroke="#FF00E0"/>
<path d="M172.442 137.061L178.487 145.468L208.333 125.731L178.487 105.994L172.442 114.035L190.577 125.731L172.442 137.061Z" fill="#FF00E0" stroke="#FF00E0"/>
<path d="M108.407 208.333H97.6042L117.72 164.474H128.15L108.407 208.333Z" fill="#FF00E0" stroke="#FF00E0"/>
<path d="M129.136 85.5263H118.333L138.449 41.6666H148.88L129.136 85.5263Z" fill="#FF00E0" stroke="#FF00E0"/>
<path d="M62.9056 209.432C63.0051 208.596 61.2878 206.104 60.4167 205.079V204.208V204.092V203.57H181.25C180.055 205.566 179.093 207.42 178.761 208.097C178.015 213.112 179.072 226.943 179.695 233.231C131.809 224.222 81.5512 229.477 62.4078 233.231C63.3536 225.151 63.2997 213.07 62.9056 209.432Z" fill="#D4DCC7"/>
<path d="M168.832 226.314C169.109 226.756 168.832 226.793 168.658 226.756C167.734 226.136 165.655 225.945 164.731 225.926V225.483C164.962 225.306 165.212 224.856 165.308 224.653V208.273C165.347 208.292 165.447 208.318 165.539 208.273C165.632 208.229 165.578 208.144 165.539 208.107C165.493 207.93 164.711 207.148 164.326 206.779V206.503H168.196L170.911 215.025L173.337 207.499V207.111C173.337 206.89 173.106 206.835 172.99 206.835V206.503H177.38V206.835C177.072 207.222 176.444 208.03 176.398 208.163C176.352 208.296 176.456 208.292 176.514 208.273V209.214C176.514 209.834 176.552 212.075 176.571 213.118V218.124C176.571 218.256 176.61 219.507 176.629 220.116V222.772V224.875V226.812C176.591 227.217 176.525 228.106 176.571 228.416C176.618 228.726 176.976 229.173 177.149 229.357C177.334 229.844 177.111 229.892 176.976 229.855C175.185 228.361 173.51 227.476 173.337 227.31C173.164 227.144 173.452 227.033 173.568 226.756C173.66 226.535 173.645 219.286 173.626 215.689C173.441 216.972 171.797 220.3 170.969 221.831C170.051 221.479 168.791 217.531 168.265 215.562C168.396 216.216 168.466 222.653 168.485 225.871C168.485 225.834 168.554 225.871 168.832 226.314Z" fill="#FF00E0"/>
<path d="M157.857 225.317C156.471 225.008 154.238 225.188 153.294 225.317V224.875H153.41C153.757 224.653 153.93 224.211 153.988 224.139C154.034 224.082 154.007 217.19 153.988 213.752C154.045 213.586 153.988 207.997 153.988 207.609C153.988 207.299 153.525 206.964 153.294 206.835V206.447H157.569C157.615 206.447 157.588 206.613 157.569 206.724C157.384 206.945 157.299 207.148 157.28 207.222V214.582H160.283V207.222C160.283 207.045 159.898 206.816 159.706 206.724V206.503H163.807C164.038 206.503 164.096 206.576 164.096 206.613C163.772 207.012 163.614 207.517 163.576 207.72C163.529 207.941 163.595 218.769 163.633 224.155C163.68 224.421 163.73 224.598 163.749 224.653C163.795 224.919 164.269 225.428 164.5 225.65C164.685 226.092 164.346 226.055 164.153 225.982C163.599 225.716 161.227 225.502 160.11 225.428C159.971 225.428 159.898 225.354 159.879 225.317C159.694 225.317 160.187 224.875 160.457 224.653V217.792H157.395V224.377C157.765 224.952 157.857 225.244 157.857 225.317Z" fill="#FF00E0"/>
<path d="M150.984 225.096H146.132V224.764H146.248C146.34 224.72 146.633 224.303 146.768 224.1V210.044C146.906 209.956 147.076 209.602 147.172 209.436H144.804C144.018 209.79 143.591 210.321 143.475 210.542H143.186C143.437 209.694 143.914 207.919 143.822 207.609C143.729 207.299 143.321 206.89 143.129 206.724V206.447H153.121V206.724C152.705 207.078 152.601 207.572 152.601 207.775C152.601 209.325 152.948 210.1 153.063 210.542C153.156 210.896 152.948 210.911 152.832 210.874C152.466 210.45 151.666 209.579 151.388 209.491C151.111 209.402 150.387 209.454 150.06 209.491V223.436C150.06 223.923 150.252 224.192 150.349 224.266C150.626 224.664 150.888 224.985 150.984 225.096Z" fill="#FF00E0"/>
<path d="M141.627 225.151H136.891C136.983 225.107 137.468 224.598 137.699 224.266V207.886C137.699 207.311 137.16 206.872 136.891 206.724V206.447H141.338C141.431 206.492 141.107 206.945 140.934 207.167L141.107 224.321C141.338 224.941 141.55 225.133 141.627 225.151Z" fill="#FF00E0"/>
<path d="M99.6355 217.459C99.5893 217.548 99.6162 217.607 99.6355 217.625C100.194 218.363 101.345 220.592 101.484 223.602C101.503 223.657 101.565 223.779 101.657 223.823L102.581 225.317H98.076C98.2297 223.845 98.0996 220.394 96.353 218.356C96.215 218.537 95.8349 218.909 95.419 218.954V224.543C95.419 224.561 95.4421 224.609 95.5346 224.653C95.627 224.698 95.7656 225.115 95.8234 225.317H91.6069V225.096C91.5876 225.041 91.5953 224.886 91.7802 224.709C91.965 224.532 92.0882 224.155 92.1267 223.989V208.329C92.223 208.347 92.4271 208.373 92.4733 208.329C92.5195 208.284 92.4925 208.236 92.4733 208.218L91.0293 207.001V206.669H99.8088L101.426 208.009V216.076C100.848 216.5 99.6817 217.371 99.6355 217.459Z" fill="#FF00E0"/>
<path d="M98.1915 214.914C97.2211 215.003 95.8618 215.467 95.3035 215.689V209.436H98.2492L98.1915 214.914Z" fill="#D4DCC7"/>
<path fill-rule="evenodd" clip-rule="evenodd" d="M113.671 223.657L115.115 225.041H121.238L122.97 223.657V207.775L121.526 206.447H115.115L113.671 207.775V223.657ZM119.909 209.325L119.736 222.053H118.321H116.906V209.325H119.909Z" fill="#FF00E0"/>
<path d="M104.43 225.096H112.574C112.689 225.115 112.886 225.085 112.747 224.819C112.285 224.465 112.247 224.045 112.285 223.879V215.467C112.285 215.113 112.478 214.582 112.574 214.361C111.557 214.626 108.954 214.582 107.78 214.527C108.057 215.368 107.895 217.054 107.78 217.791C108.103 217.526 108.877 217.57 109.224 217.625V221.942H106.451V209.325H109.224V211.815C110.102 211.638 111.63 211.741 112.285 211.815V207.609L110.841 206.337H104.719L102.928 207.775V223.381L104.43 225.096Z" fill="#FF00E0"/>
<path d="M132.443 217.238C132.397 217.327 132.424 217.386 132.443 217.404C133.001 218.142 134.153 220.37 134.291 223.381C134.311 223.436 134.372 223.558 134.465 223.602L135.389 225.096H130.884C131.037 223.623 130.907 220.173 129.161 218.135C129.023 218.316 128.643 218.688 128.227 218.732V224.321C128.227 224.34 128.25 224.388 128.342 224.432C128.435 224.476 128.573 224.893 128.631 225.096H124.415V224.875C124.395 224.819 124.403 224.664 124.588 224.487C124.773 224.31 124.896 223.934 124.934 223.768V208.107C125.031 208.126 125.235 208.152 125.281 208.107C125.327 208.063 125.3 208.015 125.281 207.997L123.837 206.779V206.447H132.616L134.234 207.788V215.855C133.656 216.279 132.489 217.15 132.443 217.238Z" fill="#FF00E0"/>
<path d="M130.999 214.693C130.029 214.781 128.669 215.246 128.111 215.467V209.214H131.057L130.999 214.693Z" fill="#D4DCC7"/>
<path d="M83.2895 225.151C81.1178 225.107 79.2271 225.317 78.5532 225.428L79.3041 224.653C80.2283 223.281 80.2668 221.536 80.1705 220.835C80.2629 220.525 79.6314 220.448 79.3041 220.448V220.005C79.3619 220.005 79.5698 219.983 79.9395 219.894C80.3091 219.806 80.8251 218.603 81.0369 218.013C81.961 214.958 82.5001 210.653 82.6542 208.882H82.943C83.4435 208.974 84.5025 209.126 84.7335 208.993C84.9646 208.86 83.174 207.314 82.2498 206.558H88.0836C88.0374 208.019 89.0655 214.121 89.5853 216.961C89.724 218.909 90.6443 219.913 91.0871 220.171C91.1795 220.171 91.1256 220.466 91.0871 220.614C90.6712 220.525 90.3362 220.577 90.2207 220.614C90.2784 222.717 90.7405 223.934 90.7405 224.1C90.7405 224.233 91.1256 224.709 91.3181 224.93V225.317C90.1629 225.317 87.9873 225.354 87.0439 225.373C86.9977 225.373 87.2172 224.893 87.3327 224.653C87.3789 224.432 87.1979 222.458 87.1017 221.499C84.9761 221.765 83.7131 222.126 83.3473 222.274C83.1162 223.104 83.0007 224.155 82.943 224.377C82.8968 224.554 83.1547 224.967 83.2895 225.151Z" fill="#FF00E0"/>
<path d="M85.6577 210.432C85.0107 212.291 84.3484 216.814 84.0981 218.843C84.4832 218.751 85.5075 218.544 86.5241 218.456C86.3508 216.814 85.9349 212.911 85.6577 210.432Z" fill="#D4DCC7"/>
<path d="M69.3696 226.092C67.2902 226.978 65.6152 228.232 65.0376 228.748L64.9221 228.638L65.0954 228.14L65.3264 227.31L65.3842 225.871L65.0376 223.215C64.9028 221.942 64.4138 217.127 63.5359 208.052C63.6283 207.875 62.7272 207.056 62.2651 206.669H66.8282C66.7235 206.669 66.5394 207.045 66.4238 207.277C66.3083 207.321 67.117 215.235 67.579 219.33C67.6368 219.33 69.2541 211.446 70.1782 207.499C70.2244 207.322 69.6776 206.871 69.3696 206.669H73.6438C73.4898 206.798 73.1586 207.089 73.0662 207.222C72.9757 207.352 74.2445 214.925 74.9299 218.928C74.9659 217.571 76.3092 210.973 77.0516 207.499C76.913 207.233 76.5318 206.835 76.3585 206.669H80.806C80.498 206.964 79.8587 207.687 79.7663 208.218C79.6739 208.749 78.3801 216.224 77.7447 219.894C77.4944 221.167 76.9939 223.89 76.9939 224.598C76.9939 225.306 77.1479 225.52 77.2249 225.539C74.5911 225.716 73.2395 226.387 72.8929 226.701V226.092L71.3334 214.914L69.3696 226.092Z" fill="#FF00E0"/>
</svg>
