<svg width="80" height="44" viewBox="0 0 80 44" fill="none" xmlns="http://www.w3.org/2000/svg">
<g clip-path="url(#clip0_577_452)">
<path d="M10.544 36.6495H11.9036C11.8281 37.3899 11.6426 38.0466 11.3405 38.6258C11.0452 39.2109 10.6195 39.6706 10.0633 40.0109C9.51397 40.3453 8.8273 40.5124 8.00329 40.5124C7.40589 40.5124 6.85655 40.3871 6.36215 40.1303C5.87461 39.8736 5.44887 39.5094 5.09867 39.0437C4.74847 38.5661 4.4738 37.9989 4.28153 37.3421C4.09613 36.6734 4 35.933 4 35.1151V33.9568C4 33.1448 4.09613 32.4045 4.28153 31.7417C4.4738 31.079 4.74847 30.5058 5.10554 30.0342C5.46947 29.5565 5.90208 29.1923 6.41022 28.9356C6.91835 28.6788 7.48829 28.5535 8.12689 28.5535C8.90283 28.5535 9.55517 28.7147 10.0976 29.049C10.6332 29.3774 11.0452 29.8371 11.3405 30.4222C11.6426 31.0014 11.8281 31.6761 11.9036 32.4463H10.544C10.4822 31.9029 10.3586 31.4372 10.18 31.0492C10.0015 30.6551 9.74744 30.3506 9.41783 30.1357C9.08823 29.9207 8.65563 29.8132 8.12689 29.8132C7.66682 29.8132 7.26855 29.9147 6.91835 30.1118C6.57502 30.3088 6.28661 30.5894 6.05315 30.9536C5.81968 31.3119 5.64801 31.7477 5.53128 32.2552C5.41454 32.7627 5.35274 33.3239 5.35274 33.9389V35.1151C5.35274 35.6883 5.40768 36.2256 5.51068 36.7271C5.61368 37.2227 5.77848 37.6645 5.99821 38.0466C6.21108 38.4228 6.48575 38.7213 6.82222 38.9422C7.15182 39.1512 7.55009 39.2586 8.00329 39.2586C8.58696 39.2586 9.04703 39.1571 9.39037 38.9482C9.7337 38.7392 9.98777 38.4407 10.1663 38.0526C10.3448 37.6645 10.4684 37.1988 10.544 36.6495ZM13.2151 36.1241V35.939C13.2151 35.3181 13.2907 34.7389 13.4555 34.2076C13.6134 33.6642 13.84 33.1985 14.1421 32.8045C14.4443 32.4045 14.8082 32.1 15.2339 31.8791C15.6665 31.6522 16.1472 31.5447 16.6759 31.5447C17.2116 31.5447 17.6922 31.6522 18.1248 31.8791C18.5574 32.1 18.9214 32.4045 19.2235 32.8045C19.5256 33.1985 19.7591 33.6642 19.9239 34.2076C20.0818 34.7389 20.1642 35.3181 20.1642 35.939V36.1241C20.1642 36.751 20.0818 37.3242 19.9239 37.8615C19.7591 38.3929 19.5256 38.8586 19.2235 39.2586C18.9214 39.6527 18.5574 39.9632 18.1317 40.1841C17.706 40.405 17.2253 40.5124 16.6897 40.5124C16.1541 40.5124 15.6734 40.405 15.2477 40.1841C14.8151 39.9632 14.4511 39.6527 14.1421 39.2586C13.84 38.8586 13.6134 38.3929 13.4555 37.8615C13.2907 37.3242 13.2151 36.751 13.2151 36.1241ZM14.5198 35.939V36.1241C14.5198 36.554 14.561 36.966 14.6503 37.3481C14.7395 37.7242 14.8769 38.0645 15.0554 38.3571C15.2339 38.6496 15.4674 38.8825 15.7352 39.0497C16.0099 39.2168 16.3257 39.3004 16.6897 39.3004C17.0468 39.3004 17.3626 39.2168 17.6304 39.0497C17.8982 38.8825 18.1248 38.6496 18.3034 38.3571C18.4819 38.0645 18.6192 37.7242 18.7085 37.3481C18.8046 36.966 18.8527 36.554 18.8527 36.1241V35.939C18.8527 35.5151 18.8046 35.1091 18.7085 34.733C18.6192 34.3509 18.4819 34.0105 18.2965 33.718C18.118 33.4195 17.8914 33.1866 17.6236 33.0135C17.3558 32.8463 17.0399 32.7567 16.6759 32.7567C16.3189 32.7567 16.003 32.8463 15.7283 33.0135C15.4605 33.1866 15.2339 33.4195 15.0554 33.718C14.8769 34.0105 14.7395 34.3509 14.6503 34.733C14.561 35.1091 14.5198 35.5151 14.5198 35.939ZM23.0963 33.4195V40.3572H21.7848V31.6999H23.0277L23.0963 33.4195ZM22.8285 35.7002L22.2243 35.6763C22.2243 35.0852 22.2929 34.5359 22.4234 34.0404C22.5607 33.5329 22.753 33.0911 23.0139 32.7209C23.268 32.3448 23.5907 32.0582 23.9753 31.8552C24.3667 31.6462 24.813 31.5447 25.3211 31.5447C25.6782 31.5447 26.0078 31.5984 26.3031 31.7179C26.6052 31.8313 26.8661 32.0104 27.0928 32.2552C27.3125 32.5 27.4842 32.8164 27.6078 33.1985C27.7245 33.5807 27.7863 34.0464 27.7863 34.5897V40.3572H26.4816V34.6613C26.4816 34.2076 26.4129 33.8434 26.2756 33.5747C26.1451 33.3 25.9597 33.103 25.7125 32.9836C25.4722 32.8523 25.1838 32.7925 24.8542 32.7925C24.4697 32.7925 24.1469 32.8702 23.886 33.0194C23.6251 33.1747 23.4191 33.3896 23.268 33.6642C23.1101 33.9329 23.0002 34.2434 22.9247 34.5956C22.8629 34.9419 22.8285 35.3121 22.8285 35.7002ZM27.7726 34.8882L26.9005 35.1867C26.9005 34.7151 26.9691 34.2613 27.1065 33.8195C27.237 33.3836 27.4361 32.9955 27.6902 32.6552C27.9511 32.3149 28.267 32.0462 28.6446 31.8492C29.0154 31.6462 29.448 31.5447 29.9356 31.5447C30.3407 31.5447 30.7046 31.6044 31.0205 31.7238C31.3364 31.8492 31.6042 32.0403 31.8239 32.297C32.0436 32.5478 32.2085 32.8702 32.3252 33.2642C32.4351 33.6583 32.4969 34.124 32.4969 34.6673V40.3572H31.1784V34.6554C31.1784 34.1658 31.1098 33.7896 30.9793 33.5269C30.842 33.2523 30.6566 33.0672 30.4094 32.9597C30.169 32.8463 29.8875 32.7925 29.551 32.7925C29.2626 32.7925 29.0086 32.8463 28.7888 32.9597C28.5691 33.0672 28.3837 33.2224 28.2326 33.4195C28.0816 33.6165 27.9648 33.8374 27.8893 34.0882C27.8138 34.3389 27.7726 34.6016 27.7726 34.8882ZM35.7654 33.4195V40.3572H34.4539V31.6999H35.6967L35.7654 33.4195ZM35.4976 35.7002L34.8933 35.6763C34.9002 35.0852 34.962 34.5359 35.0993 34.0404C35.2298 33.5329 35.4221 33.0911 35.683 32.7209C35.9439 32.3448 36.2598 32.0582 36.6512 31.8552C37.0357 31.6462 37.4821 31.5447 37.9902 31.5447C38.3473 31.5447 38.6769 31.5984 38.979 31.7179C39.2812 31.8313 39.5421 32.0104 39.7618 32.2552C39.9816 32.5 40.1532 32.8164 40.2768 33.1985C40.4004 33.5807 40.4554 34.0464 40.4554 34.5897V40.3572H39.1507V34.6613C39.1507 34.2076 39.082 33.8434 38.9516 33.5747C38.8142 33.3 38.6288 33.103 38.3816 32.9836C38.1413 32.8523 37.8529 32.7925 37.5233 32.7925C37.1387 32.7925 36.816 32.8702 36.5551 33.0194C36.301 33.1747 36.0881 33.3896 35.9371 33.6642C35.7791 33.9329 35.6693 34.2434 35.6006 34.5956C35.5319 34.9419 35.4976 35.3121 35.4976 35.7002ZM40.4416 34.8882L39.5696 35.1867C39.5764 34.7151 39.6451 34.2613 39.7756 33.8195C39.9129 33.3836 40.1052 32.9955 40.3592 32.6552C40.6202 32.3149 40.936 32.0462 41.3137 31.8492C41.6914 31.6462 42.1171 31.5447 42.6047 31.5447C43.0098 31.5447 43.3737 31.6044 43.6896 31.7238C44.0123 31.8492 44.2801 32.0403 44.493 32.297C44.7127 32.5478 44.8844 32.8702 44.9943 33.2642C45.1041 33.6583 45.1659 34.124 45.1659 34.6673V40.3572H43.8544V34.6554C43.8544 34.1658 43.7857 33.7896 43.6484 33.5269C43.5179 33.2523 43.3257 33.0672 43.0853 32.9597C42.845 32.8463 42.5566 32.7925 42.2201 32.7925C41.9386 32.7925 41.6845 32.8463 41.4579 32.9597C41.2382 33.0672 41.0528 33.2224 40.9017 33.4195C40.7506 33.6165 40.6339 33.8374 40.5584 34.0882C40.4828 34.3389 40.4416 34.6016 40.4416 34.8882ZM51.8129 38.3571V31.6999H53.1244V40.3572H51.8747L51.8129 38.3571ZM52.0532 36.5301L52.6026 36.5182C52.6026 37.0913 52.5476 37.6227 52.4378 38.1183C52.3348 38.6019 52.1631 39.0198 51.9296 39.378C51.6962 39.7363 51.3872 40.0169 51.0026 40.2199C50.625 40.4169 50.158 40.5124 49.6156 40.5124C49.2448 40.5124 48.9014 40.4527 48.5924 40.3333C48.2903 40.208 48.0225 40.0169 47.8028 39.7602C47.583 39.5094 47.4113 39.1751 47.2877 38.7631C47.171 38.3511 47.1092 37.8615 47.1092 37.2824V31.6999H48.4139V37.3003C48.4139 37.6884 48.4551 38.0108 48.5306 38.2675C48.6062 38.5183 48.716 38.7153 48.8465 38.8646C48.9838 39.0138 49.1349 39.1153 49.2997 39.1691C49.4645 39.2288 49.643 39.2586 49.8216 39.2586C50.3778 39.2586 50.8172 39.1392 51.14 38.9004C51.4627 38.6556 51.6962 38.3272 51.8404 37.9153C51.9846 37.4973 52.0532 37.0376 52.0532 36.5301ZM56.4136 33.5508V40.3572H55.1089V31.6999H56.3449L56.4136 33.5508ZM56.1046 35.7002L55.5621 35.6763C55.569 35.0852 55.6445 34.5359 55.7956 34.0404C55.9467 33.5329 56.1595 33.0911 56.4273 32.7209C56.702 32.3448 57.0247 32.0582 57.4024 31.8552C57.7869 31.6462 58.2058 31.5447 58.6659 31.5447C59.0436 31.5447 59.38 31.5984 59.6822 31.7179C59.9843 31.8313 60.2384 32.0104 60.4512 32.2612C60.671 32.5119 60.8358 32.8403 60.9456 33.2403C61.0555 33.6344 61.1173 34.112 61.1173 34.6852V40.3572H59.8058V34.6673C59.8058 34.2135 59.744 33.8553 59.6272 33.5807C59.5105 33.306 59.3388 33.103 59.1122 32.9836C58.8856 32.8523 58.611 32.7925 58.2813 32.7925C57.9517 32.7925 57.6565 32.8702 57.3887 33.0194C57.1277 33.1747 56.9011 33.3896 56.7089 33.6642C56.5166 33.9329 56.3724 34.2434 56.2625 34.5956C56.1595 34.9419 56.1046 35.3121 56.1046 35.7002ZM64.5163 31.6999V40.3572H63.2048V31.6999H64.5163ZM63.1018 29.4073C63.1018 29.1684 63.1705 28.9654 63.2941 28.7983C63.4245 28.6371 63.6168 28.5535 63.8709 28.5535C64.1249 28.5535 64.3103 28.6371 64.4477 28.7983C64.5781 28.9654 64.6468 29.1684 64.6468 29.4073C64.6468 29.6341 64.5781 29.8371 64.4477 29.9983C64.3103 30.1595 64.1249 30.2372 63.8709 30.2372C63.6168 30.2372 63.4245 30.1595 63.2941 29.9983C63.1705 29.8371 63.1018 29.6341 63.1018 29.4073ZM69.8037 31.6999V32.8403H65.6768V31.6999H69.8037ZM67.0776 29.5983H68.3823V38.2138C68.3823 38.5063 68.4235 38.7273 68.499 38.8765C68.5814 39.0258 68.6844 39.1213 68.8149 39.1691C68.9385 39.2168 69.0758 39.2407 69.22 39.2407C69.3299 39.2407 69.4398 39.2348 69.5565 39.2109C69.6801 39.187 69.7762 39.1631 69.838 39.1452L69.8449 40.3572C69.735 40.393 69.6046 40.4289 69.4329 40.4587C69.2681 40.4945 69.069 40.5124 68.8355 40.5124C68.5128 40.5124 68.2175 40.4408 67.9497 40.2975C67.6819 40.1542 67.469 39.9154 67.3111 39.581C67.1531 39.2407 67.0776 38.781 67.0776 38.2019V29.5983ZM73.4843 39.4616L75.6061 31.6999H77L73.9375 41.6886C73.8688 41.9036 73.7727 42.1305 73.6559 42.3753C73.5461 42.626 73.4019 42.8648 73.2233 43.0917C73.0448 43.3126 72.8251 43.4917 72.571 43.635C72.3238 43.7783 72.0216 43.85 71.6783 43.85C71.5753 43.85 71.438 43.8321 71.28 43.8022C71.1221 43.7664 71.0054 43.7425 70.9436 43.7186L70.9367 42.5245C70.971 42.5245 71.0328 42.5305 71.1084 42.5365C71.1976 42.5484 71.2526 42.5544 71.2869 42.5544C71.5822 42.5544 71.8362 42.5066 72.0422 42.417C72.2482 42.3335 72.4268 42.1842 72.5641 41.9752C72.7083 41.7782 72.8319 41.4976 72.9418 41.1394L73.4843 39.4616ZM71.9255 31.6999L73.9031 38.4168L74.2465 39.9811L73.3057 40.5244L70.4972 31.6999H71.9255Z" fill="#F2F2F2"/>
<path d="M39.9175 6.2602C41.6103 6.2602 42.9795 4.85519 42.9795 3.12726C42.9795 1.39934 41.6103 0 39.9175 0C38.233 0 36.8638 1.39934 36.8638 3.12726C36.8638 4.85519 38.233 6.2602 39.9175 6.2602Z" fill="white"/>
<path d="M50.622 11.6634L47.7757 11.0515C46.8048 10.8476 45.8422 11.3008 45.3361 12.1109C44.8465 11.8503 44.3154 11.6294 43.7511 11.4424V9.70884C43.7594 8.39448 42.7056 7.32373 41.4277 7.32373H38.515C37.2288 7.32373 36.1833 8.39448 36.1833 9.70884V11.4538C35.6273 11.635 35.1045 11.856 34.6066 12.1166C34.1004 11.3065 33.1379 10.8476 32.167 11.0515L29.3124 11.6634C28.0594 11.9296 27.2545 13.2043 27.5117 14.4904L28.2254 17.9916C28.4909 19.2719 29.7273 20.1047 30.9804 19.8384L31.8848 19.6458C32.3412 20.3257 32.9636 20.9545 33.7602 21.4927C35.4281 22.6088 37.6354 23.2263 39.9672 23.2263C43.5437 23.2263 46.6223 21.7533 48.0412 19.6402L48.9623 19.8384C50.2153 20.1047 51.4518 19.2719 51.7173 17.9916L52.4309 14.4904C52.6882 13.2043 51.8833 11.9296 50.622 11.6634ZM39.9672 22.0309C37.8595 22.0309 35.8762 21.4871 34.3992 20.49C33.9013 20.15 33.4781 19.7761 33.1462 19.3739L33.8349 19.2266C35.0879 18.9547 35.9011 17.6856 35.6356 16.3996L34.9966 13.2553C35.37 13.0457 35.7601 12.8644 36.1833 12.7115V13.2893C36.1833 14.598 37.2288 15.6688 38.515 15.6688H41.4277C42.7056 15.6688 43.7511 14.598 43.7511 13.2893V12.6831C44.1826 12.8361 44.5809 13.0174 44.9461 13.2213L44.2988 16.4053C44.0416 17.6856 44.8548 18.9603 46.1078 19.2266L46.8048 19.3739C45.502 20.9545 42.9296 22.0309 39.9672 22.0309Z" fill="white"/>
<path d="M50.0068 10.3732C51.6913 10.3732 53.0605 8.97389 53.0605 7.24597C53.0605 5.51804 51.6913 4.11304 50.0068 4.11304C48.314 4.11304 46.9448 5.51804 46.9448 7.24597C46.9448 8.97389 48.314 10.3732 50.0068 10.3732Z" fill="white"/>
<path d="M30.5567 10.3107C32.2164 9.95383 33.2702 8.29389 32.93 6.59995C32.5815 4.91168 30.9634 3.82394 29.3037 4.18086C27.6524 4.53211 26.5903 6.19205 26.9388 7.88598C27.2873 9.57992 28.9054 10.662 30.5567 10.3107Z" fill="white"/>
</g>
<defs>
<clipPath id="clip0_577_452">
<rect width="80" height="43.85" fill="white"/>
</clipPath>
</defs>
</svg>
