<svg width="73" height="56" viewBox="0 0 73 56" fill="none" xmlns="http://www.w3.org/2000/svg">
<path d="M36.7361 12.8359C37.8969 12.8359 38.838 11.7533 38.838 10.4179C38.838 9.08255 37.8969 8 36.7361 8C35.5753 8 34.6343 9.08255 34.6343 10.4179C34.6343 11.7533 35.5753 12.8359 36.7361 12.8359Z" fill="white"/>
<path d="M44.0936 17.0702L42.1347 16.6001C41.4673 16.4392 40.8084 16.7911 40.46 17.4167C40.1217 17.2168 39.7578 17.0444 39.3708 16.9013V15.5613C39.3716 14.5474 38.6501 13.7183 37.7719 13.7183H35.7689C34.886 13.7183 34.1676 14.5474 34.1676 15.5613V16.9084C33.7845 17.0488 33.4245 17.2212 33.0838 17.4221C32.7355 16.7938 32.0758 16.4392 31.4076 16.6001L29.4471 17.0702C28.5866 17.2772 28.0281 18.2591 28.2081 19.2526L28.7001 21.9567C28.8786 22.9475 29.7329 23.59 30.5942 23.383L31.2145 23.2337C31.525 23.7615 31.9545 24.2458 32.5045 24.6599C33.65 25.5237 35.1633 26 36.7692 26C39.2264 26 41.3429 24.8634 42.3177 23.231L42.9481 23.383C43.8086 23.5891 44.6629 22.9475 44.8414 21.9567L45.3342 19.2526C45.5134 18.2591 44.9549 17.2772 44.0936 17.0702ZM36.7684 25.0767C35.3177 25.0767 33.9582 24.6564 32.944 23.8877C32.5964 23.6264 32.3082 23.3359 32.0773 23.0248L32.5523 22.9102C33.4144 22.704 33.9729 21.7221 33.7929 20.7304L33.3518 18.2991C33.6091 18.1401 33.8794 18.0005 34.1668 17.8815V18.3249C34.1668 19.337 34.8867 20.1661 35.7681 20.1661H37.771C38.6501 20.1661 39.37 19.3362 39.37 18.3249V17.8584C39.6628 17.9783 39.9378 18.1161 40.1927 18.2725L39.7454 20.7313C39.567 21.723 40.1247 22.705 40.9868 22.9111L41.4665 23.0266C40.572 24.2449 38.8023 25.0767 36.7684 25.0767Z" fill="white"/>
<path d="M43.6673 16.0146C44.8281 16.0146 45.7691 14.932 45.7691 13.5967C45.7691 12.2613 44.8281 11.1787 43.6673 11.1787C42.5065 11.1787 41.5654 12.2613 41.5654 13.5967C41.5654 14.932 42.5065 16.0146 43.6673 16.0146Z" fill="white"/>
<path d="M30.3021 15.9639C31.4392 15.6901 32.1653 14.4079 31.9305 13.1007C31.691 11.7944 30.5787 10.9556 29.4408 11.2293C28.3053 11.5021 27.5761 12.7835 27.814 14.0906C28.0512 15.3987 29.1651 16.2367 30.3021 15.9639Z" fill="white"/>
<path d="M11.9097 40.2871H13.0347C12.9761 40.8262 12.8218 41.3086 12.5718 41.7344C12.3218 42.1602 11.9683 42.498 11.5112 42.748C11.0542 42.9941 10.4839 43.1172 9.80029 43.1172C9.30029 43.1172 8.84521 43.0234 8.43506 42.8359C8.02881 42.6484 7.6792 42.3828 7.38623 42.0391C7.09326 41.6914 6.8667 41.2754 6.70654 40.791C6.55029 40.3027 6.47217 39.7598 6.47217 39.1621V38.3125C6.47217 37.7148 6.55029 37.1738 6.70654 36.6895C6.8667 36.2012 7.09521 35.7832 7.39209 35.4355C7.69287 35.0879 8.0542 34.8203 8.47607 34.6328C8.89795 34.4453 9.37256 34.3516 9.8999 34.3516C10.5444 34.3516 11.0894 34.4727 11.5347 34.7148C11.98 34.957 12.3257 35.293 12.5718 35.7227C12.8218 36.1484 12.9761 36.6426 13.0347 37.2051H11.9097C11.855 36.8066 11.7534 36.4648 11.605 36.1797C11.4565 35.8906 11.2456 35.668 10.9722 35.5117C10.6987 35.3555 10.3413 35.2773 9.8999 35.2773C9.521 35.2773 9.18701 35.3496 8.89795 35.4941C8.61279 35.6387 8.37256 35.8438 8.17725 36.1094C7.98584 36.375 7.84131 36.6934 7.74365 37.0645C7.646 37.4355 7.59717 37.8477 7.59717 38.3008V39.1621C7.59717 39.5801 7.64014 39.9727 7.72607 40.3398C7.81592 40.707 7.95068 41.0293 8.13037 41.3066C8.31006 41.584 8.53857 41.8027 8.81592 41.9629C9.09326 42.1191 9.42139 42.1973 9.80029 42.1973C10.2808 42.1973 10.6636 42.1211 10.9487 41.9688C11.2339 41.8164 11.4487 41.5977 11.5933 41.3125C11.7417 41.0273 11.8472 40.6855 11.9097 40.2871ZM14.1245 39.9004V39.7656C14.1245 39.3086 14.1909 38.8848 14.3237 38.4941C14.4565 38.0996 14.6479 37.7578 14.8979 37.4688C15.1479 37.1758 15.4507 36.9492 15.8062 36.7891C16.1616 36.625 16.5601 36.543 17.0015 36.543C17.4468 36.543 17.8472 36.625 18.2026 36.7891C18.562 36.9492 18.8667 37.1758 19.1167 37.4688C19.3706 37.7578 19.564 38.0996 19.6968 38.4941C19.8296 38.8848 19.896 39.3086 19.896 39.7656V39.9004C19.896 40.3574 19.8296 40.7812 19.6968 41.1719C19.564 41.5625 19.3706 41.9043 19.1167 42.1973C18.8667 42.4863 18.564 42.7129 18.2085 42.877C17.8569 43.0371 17.4585 43.1172 17.0132 43.1172C16.5679 43.1172 16.1675 43.0371 15.812 42.877C15.4565 42.7129 15.1519 42.4863 14.8979 42.1973C14.6479 41.9043 14.4565 41.5625 14.3237 41.1719C14.1909 40.7812 14.1245 40.3574 14.1245 39.9004ZM15.2085 39.7656V39.9004C15.2085 40.2168 15.2456 40.5156 15.3198 40.7969C15.394 41.0742 15.5054 41.3203 15.6538 41.5352C15.8062 41.75 15.9956 41.9199 16.2222 42.0449C16.4487 42.166 16.7124 42.2266 17.0132 42.2266C17.3101 42.2266 17.5698 42.166 17.7925 42.0449C18.019 41.9199 18.2065 41.75 18.355 41.5352C18.5034 41.3203 18.6147 41.0742 18.689 40.7969C18.7671 40.5156 18.8062 40.2168 18.8062 39.9004V39.7656C18.8062 39.4531 18.7671 39.1582 18.689 38.8809C18.6147 38.5996 18.5015 38.3516 18.3491 38.1367C18.2007 37.918 18.0132 37.7461 17.7866 37.6211C17.564 37.4961 17.3022 37.4336 17.0015 37.4336C16.7046 37.4336 16.4429 37.4961 16.2163 37.6211C15.9937 37.7461 15.8062 37.918 15.6538 38.1367C15.5054 38.3516 15.394 38.5996 15.3198 38.8809C15.2456 39.1582 15.2085 39.4531 15.2085 39.7656ZM22.3335 37.9199V43H21.2437V36.6602H22.2749L22.3335 37.9199ZM22.1108 39.5898L21.6069 39.5723C21.6108 39.1387 21.6675 38.7383 21.7769 38.3711C21.8862 38 22.0483 37.6777 22.2632 37.4043C22.478 37.1309 22.7456 36.9199 23.0659 36.7715C23.3862 36.6191 23.7573 36.543 24.1792 36.543C24.4761 36.543 24.7495 36.5859 24.9995 36.6719C25.2495 36.7539 25.4663 36.8848 25.6499 37.0645C25.8335 37.2441 25.9761 37.4746 26.0776 37.7559C26.1792 38.0371 26.23 38.377 26.23 38.7754V43H25.146V38.8281C25.146 38.4961 25.0894 38.2305 24.9761 38.0312C24.8667 37.832 24.7104 37.6875 24.5073 37.5977C24.3042 37.5039 24.0659 37.457 23.7925 37.457C23.4722 37.457 23.2046 37.5137 22.9897 37.627C22.7749 37.7402 22.603 37.8965 22.4741 38.0957C22.3452 38.2949 22.2515 38.5234 22.1929 38.7812C22.1382 39.0352 22.1108 39.3047 22.1108 39.5898ZM26.2183 38.9922L25.4917 39.2148C25.4956 38.8672 25.5522 38.5332 25.6616 38.2129C25.7749 37.8926 25.937 37.6074 26.1479 37.3574C26.3628 37.1074 26.6265 36.9102 26.939 36.7656C27.2515 36.6172 27.6089 36.543 28.0112 36.543C28.3511 36.543 28.6519 36.5879 28.9136 36.6777C29.1792 36.7676 29.4019 36.9062 29.5815 37.0938C29.7651 37.2773 29.9038 37.5137 29.9976 37.8027C30.0913 38.0918 30.1382 38.4355 30.1382 38.834V43H29.0483V38.8223C29.0483 38.4668 28.9917 38.1914 28.8784 37.9961C28.769 37.7969 28.6128 37.6582 28.4097 37.5801C28.2104 37.498 27.9722 37.457 27.6948 37.457C27.4565 37.457 27.2456 37.498 27.062 37.5801C26.8784 37.6621 26.7241 37.7754 26.5991 37.9199C26.4741 38.0605 26.3784 38.2227 26.312 38.4062C26.2495 38.5898 26.2183 38.7852 26.2183 38.9922ZM32.8569 37.9199V43H31.7671V36.6602H32.7983L32.8569 37.9199ZM32.6343 39.5898L32.1304 39.5723C32.1343 39.1387 32.1909 38.7383 32.3003 38.3711C32.4097 38 32.5718 37.6777 32.7866 37.4043C33.0015 37.1309 33.269 36.9199 33.5894 36.7715C33.9097 36.6191 34.2808 36.543 34.7026 36.543C34.9995 36.543 35.2729 36.5859 35.5229 36.6719C35.7729 36.7539 35.9897 36.8848 36.1733 37.0645C36.3569 37.2441 36.4995 37.4746 36.6011 37.7559C36.7026 38.0371 36.7534 38.377 36.7534 38.7754V43H35.6694V38.8281C35.6694 38.4961 35.6128 38.2305 35.4995 38.0312C35.3901 37.832 35.2339 37.6875 35.0308 37.5977C34.8276 37.5039 34.5894 37.457 34.3159 37.457C33.9956 37.457 33.728 37.5137 33.5132 37.627C33.2983 37.7402 33.1265 37.8965 32.9976 38.0957C32.8687 38.2949 32.7749 38.5234 32.7163 38.7812C32.6616 39.0352 32.6343 39.3047 32.6343 39.5898ZM36.7417 38.9922L36.0151 39.2148C36.019 38.8672 36.0757 38.5332 36.1851 38.2129C36.2983 37.8926 36.4604 37.6074 36.6714 37.3574C36.8862 37.1074 37.1499 36.9102 37.4624 36.7656C37.7749 36.6172 38.1323 36.543 38.5347 36.543C38.8745 36.543 39.1753 36.5879 39.437 36.6777C39.7026 36.7676 39.9253 36.9062 40.105 37.0938C40.2886 37.2773 40.4272 37.5137 40.521 37.8027C40.6147 38.0918 40.6616 38.4355 40.6616 38.834V43H39.5718V38.8223C39.5718 38.4668 39.5151 38.1914 39.4019 37.9961C39.2925 37.7969 39.1362 37.6582 38.9331 37.5801C38.7339 37.498 38.4956 37.457 38.2183 37.457C37.98 37.457 37.769 37.498 37.5854 37.5801C37.4019 37.6621 37.2476 37.7754 37.1226 37.9199C36.9976 38.0605 36.9019 38.2227 36.8354 38.4062C36.7729 38.5898 36.7417 38.7852 36.7417 38.9922ZM46.1812 41.5352V36.6602H47.271V43H46.2339L46.1812 41.5352ZM46.3862 40.1992L46.8374 40.1875C46.8374 40.6094 46.7925 41 46.7026 41.3594C46.6167 41.7148 46.4761 42.0234 46.2808 42.2852C46.0854 42.5469 45.8296 42.752 45.5132 42.9004C45.1968 43.0449 44.812 43.1172 44.3589 43.1172C44.0503 43.1172 43.7671 43.0723 43.5093 42.9824C43.2554 42.8926 43.0366 42.7539 42.853 42.5664C42.6694 42.3789 42.5269 42.1348 42.4253 41.834C42.3276 41.5332 42.2788 41.1719 42.2788 40.75V36.6602H43.3628V40.7617C43.3628 41.0469 43.394 41.2832 43.4565 41.4707C43.5229 41.6543 43.6108 41.8008 43.7202 41.9102C43.8335 42.0156 43.9585 42.0898 44.0952 42.1328C44.2358 42.1758 44.3804 42.1973 44.5288 42.1973C44.9897 42.1973 45.355 42.1094 45.6245 41.9336C45.894 41.7539 46.0874 41.5137 46.2046 41.2129C46.3257 40.9082 46.3862 40.5703 46.3862 40.1992ZM50.0073 38.0137V43H48.9233V36.6602H49.9487L50.0073 38.0137ZM49.7495 39.5898L49.2983 39.5723C49.3022 39.1387 49.3667 38.7383 49.4917 38.3711C49.6167 38 49.7925 37.6777 50.019 37.4043C50.2456 37.1309 50.5151 36.9199 50.8276 36.7715C51.144 36.6191 51.4937 36.543 51.8765 36.543C52.189 36.543 52.4702 36.5859 52.7202 36.6719C52.9702 36.7539 53.1831 36.8867 53.3589 37.0703C53.5386 37.2539 53.6753 37.4922 53.769 37.7852C53.8628 38.0742 53.9097 38.4277 53.9097 38.8457V43H52.8198V38.834C52.8198 38.502 52.771 38.2363 52.6733 38.0371C52.5757 37.834 52.4331 37.6875 52.2456 37.5977C52.0581 37.5039 51.8276 37.457 51.5542 37.457C51.2847 37.457 51.0386 37.5137 50.8159 37.627C50.5972 37.7402 50.4077 37.8965 50.2476 38.0957C50.0913 38.2949 49.9683 38.5234 49.8784 38.7812C49.7925 39.0352 49.7495 39.3047 49.7495 39.5898ZM56.7339 36.6602V43H55.644V36.6602H56.7339ZM55.562 34.9785C55.562 34.8027 55.6147 34.6543 55.7202 34.5332C55.8296 34.4121 55.9897 34.3516 56.2007 34.3516C56.4077 34.3516 56.5659 34.4121 56.6753 34.5332C56.7886 34.6543 56.8452 34.8027 56.8452 34.9785C56.8452 35.1465 56.7886 35.291 56.6753 35.4121C56.5659 35.5293 56.4077 35.5879 56.2007 35.5879C55.9897 35.5879 55.8296 35.5293 55.7202 35.4121C55.6147 35.291 55.562 35.1465 55.562 34.9785ZM61.1284 36.6602V37.4922H57.7007V36.6602H61.1284ZM58.8608 35.1191H59.9448V41.4297C59.9448 41.6445 59.978 41.8066 60.0444 41.916C60.1108 42.0254 60.1968 42.0977 60.3022 42.1328C60.4077 42.168 60.521 42.1855 60.6421 42.1855C60.7319 42.1855 60.8257 42.1777 60.9233 42.1621C61.0249 42.1426 61.1011 42.127 61.1519 42.1152L61.1577 43C61.0718 43.0273 60.9585 43.0527 60.8179 43.0762C60.6812 43.1035 60.5151 43.1172 60.3198 43.1172C60.0542 43.1172 59.8101 43.0645 59.5874 42.959C59.3647 42.8535 59.187 42.6777 59.0542 42.4316C58.9253 42.1816 58.8608 41.8457 58.8608 41.4238V35.1191ZM64.1812 42.3438L65.9448 36.6602H67.105L64.562 43.9785C64.5034 44.1348 64.4253 44.3027 64.3276 44.4824C64.2339 44.666 64.1128 44.8398 63.9644 45.0039C63.8159 45.168 63.6362 45.3008 63.4253 45.4023C63.2183 45.5078 62.9702 45.5605 62.6812 45.5605C62.5952 45.5605 62.4858 45.5488 62.353 45.5254C62.2202 45.502 62.1265 45.4824 62.0718 45.4668L62.0659 44.5879C62.0972 44.5918 62.146 44.5957 62.2124 44.5996C62.2827 44.6074 62.3315 44.6113 62.3589 44.6113C62.605 44.6113 62.814 44.5781 62.9858 44.5117C63.1577 44.4492 63.3022 44.3418 63.4194 44.1895C63.5405 44.041 63.644 43.8359 63.73 43.5742L64.1812 42.3438ZM62.8862 36.6602L64.5327 41.582L64.814 42.7246L64.0347 43.123L61.7026 36.6602H62.8862Z" fill="#F2F2F2"/>
</svg>
