<svg width="33" height="38" viewBox="0 0 33 38" fill="none" xmlns="http://www.w3.org/2000/svg">
<path d="M6.5625 28.1367V29.0566H1.94531V28.1367H6.5625ZM2.12109 24.4688V33H0.990234V24.4688H2.12109ZM7.54688 24.4688V33H6.42188V24.4688H7.54688ZM9.10547 29.9004V29.7656C9.10547 29.3086 9.17188 28.8848 9.30469 28.4941C9.4375 28.0996 9.62891 27.7578 9.87891 27.4688C10.1289 27.1758 10.4316 26.9492 10.7871 26.7891C11.1426 26.625 11.541 26.543 11.9824 26.543C12.4277 26.543 12.8281 26.625 13.1836 26.7891C13.543 26.9492 13.8477 27.1758 14.0977 27.4688C14.3516 27.7578 14.5449 28.0996 14.6777 28.4941C14.8105 28.8848 14.877 29.3086 14.877 29.7656V29.9004C14.877 30.3574 14.8105 30.7812 14.6777 31.1719C14.5449 31.5625 14.3516 31.9043 14.0977 32.1973C13.8477 32.4863 13.5449 32.7129 13.1895 32.877C12.8379 33.0371 12.4395 33.1172 11.9941 33.1172C11.5488 33.1172 11.1484 33.0371 10.793 32.877C10.4375 32.7129 10.1328 32.4863 9.87891 32.1973C9.62891 31.9043 9.4375 31.5625 9.30469 31.1719C9.17188 30.7812 9.10547 30.3574 9.10547 29.9004ZM10.1895 29.7656V29.9004C10.1895 30.2168 10.2266 30.5156 10.3008 30.7969C10.375 31.0742 10.4863 31.3203 10.6348 31.5352C10.7871 31.75 10.9766 31.9199 11.2031 32.0449C11.4297 32.166 11.6934 32.2266 11.9941 32.2266C12.291 32.2266 12.5508 32.166 12.7734 32.0449C13 31.9199 13.1875 31.75 13.3359 31.5352C13.4844 31.3203 13.5957 31.0742 13.6699 30.7969C13.748 30.5156 13.7871 30.2168 13.7871 29.9004V29.7656C13.7871 29.4531 13.748 29.1582 13.6699 28.8809C13.5957 28.5996 13.4824 28.3516 13.3301 28.1367C13.1816 27.918 12.9941 27.7461 12.7676 27.6211C12.5449 27.4961 12.2832 27.4336 11.9824 27.4336C11.6855 27.4336 11.4238 27.4961 11.1973 27.6211C10.9746 27.7461 10.7871 27.918 10.6348 28.1367C10.4863 28.3516 10.375 28.5996 10.3008 28.8809C10.2266 29.1582 10.1895 29.4531 10.1895 29.7656ZM17.3145 27.9199V33H16.2246V26.6602H17.2559L17.3145 27.9199ZM17.0918 29.5898L16.5879 29.5723C16.5918 29.1387 16.6484 28.7383 16.7578 28.3711C16.8672 28 17.0293 27.6777 17.2441 27.4043C17.459 27.1309 17.7266 26.9199 18.0469 26.7715C18.3672 26.6191 18.7383 26.543 19.1602 26.543C19.457 26.543 19.7305 26.5859 19.9805 26.6719C20.2305 26.7539 20.4473 26.8848 20.6309 27.0645C20.8145 27.2441 20.957 27.4746 21.0586 27.7559C21.1602 28.0371 21.2109 28.377 21.2109 28.7754V33H20.127V28.8281C20.127 28.4961 20.0703 28.2305 19.957 28.0312C19.8477 27.832 19.6914 27.6875 19.4883 27.5977C19.2852 27.5039 19.0469 27.457 18.7734 27.457C18.4531 27.457 18.1855 27.5137 17.9707 27.627C17.7559 27.7402 17.584 27.8965 17.4551 28.0957C17.3262 28.2949 17.2324 28.5234 17.1738 28.7812C17.1191 29.0352 17.0918 29.3047 17.0918 29.5898ZM21.1992 28.9922L20.4727 29.2148C20.4766 28.8672 20.5332 28.5332 20.6426 28.2129C20.7559 27.8926 20.918 27.6074 21.1289 27.3574C21.3438 27.1074 21.6074 26.9102 21.9199 26.7656C22.2324 26.6172 22.5898 26.543 22.9922 26.543C23.332 26.543 23.6328 26.5879 23.8945 26.6777C24.1602 26.7676 24.3828 26.9062 24.5625 27.0938C24.7461 27.2773 24.8848 27.5137 24.9785 27.8027C25.0723 28.0918 25.1191 28.4355 25.1191 28.834V33H24.0293V28.8223C24.0293 28.4668 23.9727 28.1914 23.8594 27.9961C23.75 27.7969 23.5938 27.6582 23.3906 27.5801C23.1914 27.498 22.9531 27.457 22.6758 27.457C22.4375 27.457 22.2266 27.498 22.043 27.5801C21.8594 27.6621 21.7051 27.7754 21.5801 27.9199C21.4551 28.0605 21.3594 28.2227 21.293 28.4062C21.2305 28.5898 21.1992 28.7852 21.1992 28.9922ZM29.3906 33.1172C28.9492 33.1172 28.5488 33.043 28.1895 32.8945C27.834 32.7422 27.5273 32.5293 27.2695 32.2559C27.0156 31.9824 26.8203 31.6582 26.6836 31.2832C26.5469 30.9082 26.4785 30.498 26.4785 30.0527V29.8066C26.4785 29.291 26.5547 28.832 26.707 28.4297C26.8594 28.0234 27.0664 27.6797 27.3281 27.3984C27.5898 27.1172 27.8867 26.9043 28.2188 26.7598C28.5508 26.6152 28.8945 26.543 29.25 26.543C29.7031 26.543 30.0938 26.6211 30.4219 26.7773C30.7539 26.9336 31.0254 27.1523 31.2363 27.4336C31.4473 27.7109 31.6035 28.0391 31.7051 28.418C31.8066 28.793 31.8574 29.2031 31.8574 29.6484V30.1348H27.123V29.25H30.7734V29.168C30.7578 28.8867 30.6992 28.6133 30.5977 28.3477C30.5 28.082 30.3438 27.8633 30.1289 27.6914C29.9141 27.5195 29.6211 27.4336 29.25 27.4336C29.0039 27.4336 28.7773 27.4863 28.5703 27.5918C28.3633 27.6934 28.1855 27.8457 28.0371 28.0488C27.8887 28.252 27.7734 28.5 27.6914 28.793C27.6094 29.0859 27.5684 29.4238 27.5684 29.8066V30.0527C27.5684 30.3535 27.6094 30.6367 27.6914 30.9023C27.7773 31.1641 27.9004 31.3945 28.0605 31.5938C28.2246 31.793 28.4219 31.9492 28.6523 32.0625C28.8867 32.1758 29.1523 32.2324 29.4492 32.2324C29.832 32.2324 30.1562 32.1543 30.4219 31.998C30.6875 31.8418 30.9199 31.6328 31.1191 31.3711L31.7754 31.8926C31.6387 32.0996 31.4648 32.2969 31.2539 32.4844C31.043 32.6719 30.7832 32.8242 30.4746 32.9414C30.1699 33.0586 29.8086 33.1172 29.3906 33.1172Z" fill="white"/>
<path d="M8.5 18V6L16.5 0L24.5 6V18H18.5V11H14.5V18H8.5Z" fill="white"/>
</svg>
