<svg width="80" height="44" viewBox="0 0 80 44" fill="none" xmlns="http://www.w3.org/2000/svg">
<path d="M28.5 25.1582V8.38607L41 0L53.5 8.38607V25.1582H44.126V15.3738H37.874V25.1582H28.5Z" fill="white"/>
<path d="M29.6781 35.0917V36.3646H24.1465V35.0917H29.6781ZM24.3566 30V41.8393H23V30H24.3566ZM30.8586 30V41.8393H29.5112V30H30.8586ZM32.7282 37.5386V37.3491C32.7282 36.7147 32.8086 36.1298 32.9662 35.586C33.1269 35.0381 33.3556 34.5644 33.6553 34.1648C33.9551 33.757 34.3166 33.4439 34.7431 33.2214C35.1695 32.9907 35.6485 32.8795 36.177 32.8795C36.7085 32.8795 37.1906 32.9907 37.6171 33.2214C38.0466 33.4439 38.4113 33.757 38.711 34.1648C39.017 34.5644 39.2487 35.0381 39.4063 35.586C39.567 36.1298 39.6443 36.7147 39.6443 37.3491V37.5386C39.6443 38.173 39.567 38.758 39.4063 39.3018C39.2487 39.8455 39.017 40.3193 38.711 40.723C38.4113 41.1267 38.0497 41.4398 37.6232 41.6663C37.203 41.8888 36.724 42 36.1893 42C35.6578 42 35.1757 41.8888 34.7493 41.6663C34.3228 41.4398 33.9582 41.1267 33.6553 40.723C33.3556 40.3193 33.1269 39.8455 32.9662 39.3018C32.8086 38.758 32.7282 38.173 32.7282 37.5386ZM34.0261 37.3491V37.5386C34.0261 37.9753 34.0725 38.3913 34.159 38.7827C34.2486 39.1658 34.3815 39.5077 34.5608 39.8043C34.7431 40.105 34.9718 40.3399 35.2406 40.5129C35.5126 40.6818 35.8309 40.7642 36.1893 40.7642C36.5447 40.7642 36.8568 40.6818 37.1257 40.5129C37.3946 40.3399 37.6201 40.105 37.7994 39.8043C37.9755 39.5077 38.1084 39.1658 38.198 38.7827C38.2938 38.3913 38.3402 37.9753 38.3402 37.5386V37.3491C38.3402 36.9166 38.2938 36.5088 38.198 36.1215C38.1084 35.7343 37.9755 35.3883 37.7901 35.0917C37.614 34.7868 37.3884 34.5479 37.1164 34.3749C36.8507 34.2019 36.5355 34.1153 36.177 34.1153C35.8216 34.1153 35.5064 34.2019 35.2344 34.3749C34.9687 34.5479 34.7431 34.7868 34.5608 35.0917C34.3815 35.3883 34.2486 35.7343 34.159 36.1215C34.0725 36.5088 34.0261 36.9166 34.0261 37.3491ZM42.5677 34.7909V41.8393H41.2605V33.0402H42.4966L42.5677 34.7909ZM42.3019 37.1061L41.6962 37.0814C41.7024 36.4799 41.7704 35.9238 41.9002 35.4171C42.03 34.9022 42.2247 34.4531 42.4843 34.0742C42.7407 33.6952 43.0621 33.4027 43.4453 33.1967C43.8285 32.9825 44.2735 32.8795 44.7803 32.8795C45.1357 32.8795 45.4633 32.9372 45.7631 33.0566C46.0628 33.172 46.3224 33.3532 46.5418 33.6004C46.7643 33.8517 46.9343 34.173 47.0548 34.5602C47.1784 34.9516 47.2371 35.4253 47.2371 35.9773V41.8393H45.9392V36.0515C45.9392 35.5901 45.8712 35.2194 45.7352 34.9434C45.6054 34.6674 45.4169 34.4655 45.1728 34.3419C44.9287 34.2101 44.6444 34.1483 44.3168 34.1483C43.9336 34.1483 43.6122 34.2266 43.3526 34.3831C43.0961 34.5397 42.8891 34.758 42.7346 35.034C42.5801 35.31 42.4688 35.6272 42.3977 35.9856C42.3328 36.3357 42.3019 36.7106 42.3019 37.1061ZM47.2248 36.2781L46.3533 36.587C46.3564 36.105 46.4244 35.6395 46.5573 35.1946C46.6932 34.7497 46.8879 34.3543 47.1382 34.0082C47.3978 33.6622 47.713 33.3862 48.0869 33.1885C48.4609 32.9825 48.8904 32.8795 49.3725 32.8795C49.7804 32.8795 50.142 32.9413 50.4541 33.0649C50.7724 33.1885 51.0413 33.3821 51.2545 33.6416C51.4739 33.897 51.6408 34.2266 51.7551 34.6262C51.8664 35.0299 51.922 35.5036 51.922 36.0597V41.8393H50.6148V36.0433C50.6148 35.5489 50.5499 35.1658 50.4139 34.8939C50.281 34.6179 50.0956 34.4243 49.8515 34.3172C49.6105 34.2019 49.3262 34.1483 48.9924 34.1483C48.7081 34.1483 48.4547 34.2019 48.2353 34.3172C48.0159 34.4325 47.8305 34.5891 47.679 34.7909C47.5307 34.9846 47.4164 35.2111 47.336 35.4624C47.2618 35.7178 47.2248 35.9897 47.2248 36.2781ZM57.0426 42C56.5142 42 56.0321 41.897 55.6025 41.691C55.1761 41.4809 54.8083 41.1843 54.4993 40.8054C54.1964 40.4264 53.9616 39.9773 53.7978 39.4542C53.634 38.9351 53.5506 38.3666 53.5506 37.7487V37.4068C53.5506 36.69 53.6433 36.0556 53.8256 35.4954C54.0079 34.931 54.2552 34.4573 54.5704 34.0659C54.8825 33.6746 55.241 33.3821 55.6365 33.1802C56.0352 32.9784 56.4493 32.8795 56.8726 32.8795C57.4165 32.8795 57.8862 32.9866 58.2787 33.2049C58.6774 33.4192 59.0018 33.724 59.2552 34.1153C59.5086 34.4985 59.6941 34.9557 59.8177 35.4789C59.9382 36.0021 60 36.5705 60 37.1885V37.8641H54.3231V36.6365H58.699V36.5211C58.6804 36.1298 58.6125 35.7508 58.4888 35.3841C58.3714 35.0134 58.186 34.7127 57.9264 34.4737C57.6699 34.2348 57.3176 34.1153 56.8726 34.1153C56.5791 34.1153 56.3071 34.1895 56.0599 34.3337C55.8127 34.4737 55.5994 34.688 55.4202 34.9681C55.241 35.2482 55.105 35.5942 55.0061 36.0021C54.9072 36.4058 54.8578 36.8754 54.8578 37.4068V37.7487C54.8578 38.1648 54.9072 38.5602 55.0061 38.9269C55.1081 39.2894 55.2564 39.6107 55.448 39.8867C55.6458 40.1627 55.8806 40.3811 56.1588 40.5376C56.44 40.6941 56.7583 40.7724 57.1137 40.7724C57.571 40.7724 57.9604 40.6653 58.2787 40.447C58.597 40.2328 58.8751 39.9403 59.1131 39.5778L59.9011 40.3028C59.7373 40.587 59.5303 40.863 59.2769 41.1226C59.0235 41.3821 58.7113 41.5963 58.3405 41.757C57.9759 41.9217 57.5432 42 57.0426 42Z" fill="white"/>
</svg>
