<svg width="230" height="236" viewBox="0 0 230 236" fill="none" xmlns="http://www.w3.org/2000/svg">
<path d="M13.4023 1.50098H13.4414C16.3732 1.51127 19.3222 2.62887 21.6113 4.84277L21.832 5.06152C24.3081 7.58093 25.4535 10.9384 25.291 14.2637L25.2588 14.9199L25.7188 15.3877L59.7842 50.0488L60.8535 51.1377L61.9238 50.0488L91.2041 20.2559L83.1855 44.3213L75.1143 52.5615L74.084 53.6133L75.1162 54.6631L113.553 93.7725L114.623 94.8613L115.692 93.7725L154.13 54.6631L155.163 53.6113L154.13 52.5605L146.004 44.292L137.985 20.2031L167.295 50.0488L168.364 51.1377L169.435 50.0498L203.445 15.4717L203.91 14.999L203.874 14.3379C203.697 11.1019 204.788 7.81747 207.129 5.30273L207.359 5.06152C209.691 2.68963 212.728 1.50098 215.765 1.50098C218.707 1.501 221.649 2.61656 223.949 4.84277L224.169 5.06152C228.759 9.73225 228.831 17.2549 224.385 22.0146L224.169 22.2393C221.67 24.7813 218.352 25.9599 215.094 25.7754L214.416 25.7373L213.939 26.2217L179.929 60.7998L178.895 61.8516L179.929 62.9033L209.359 92.8486L185.708 84.6904L177.587 76.4277L176.518 75.3389L175.447 76.4277L137.011 115.537L135.977 116.589L137.011 117.641L219.084 201.149L223.39 227.334L197.734 222.963L115.639 139.459L114.569 138.371L113.499 139.46L31.4844 222.908L5.83203 227.279L10.1602 201.151L92.21 117.668L93.2432 116.616L92.209 115.565L53.7451 76.4551L52.6758 75.3682L51.6055 76.4561L43.5117 84.6904L19.8613 92.8486L49.2383 62.958L50.2715 61.9072L49.2383 60.8555L15.2285 26.2227L14.752 25.7383L14.0732 25.7764C10.9171 25.9552 7.7035 24.8546 5.23438 22.4746L4.99707 22.2402C0.40693 17.5694 0.335485 10.0467 4.78223 5.28711L4.99707 5.0625C7.32836 2.69059 10.3653 1.50098 13.4023 1.50098Z" fill="black" stroke="#774C90" stroke-width="3"/>
<path d="M67.5582 127.061L61.5133 135.468L31.6667 115.731L61.5133 95.9942L67.5582 104.035L49.4235 115.731L67.5582 127.061Z" fill="#FF00E0" stroke="#FF00E0"/>
<path d="M162.442 127.061L168.487 135.468L198.333 115.731L168.487 95.9942L162.442 104.035L180.576 115.731L162.442 127.061Z" fill="#FF00E0" stroke="#FF00E0"/>
<path d="M98.4069 198.333H87.6041L107.72 154.474H118.15L98.4069 198.333Z" fill="#FF00E0" stroke="#FF00E0"/>
<path d="M119.136 75.5263H108.333L128.449 31.6667H138.879L119.136 75.5263Z" fill="#FF00E0" stroke="#FF00E0"/>
<path d="M174.584 231.138C174.928 231.705 174.584 231.752 174.369 231.705C173.222 230.911 170.641 230.665 169.493 230.642V230.075C169.78 229.848 170.091 229.271 170.21 229.011V208.026C170.258 208.05 170.382 208.083 170.497 208.026C170.612 207.969 170.545 207.861 170.497 207.813C170.44 207.587 169.469 206.585 168.991 206.112V205.757H173.795L177.165 216.675L180.177 207.034V206.537C180.177 206.254 179.89 206.183 179.747 206.183V205.757H185.196V206.183C184.814 206.679 184.034 207.714 183.977 207.884C183.92 208.054 184.049 208.05 184.12 208.026V209.231C184.12 210.025 184.168 212.896 184.192 214.233V220.646C184.192 220.816 184.24 222.418 184.264 223.198V226.601V229.295V231.776C184.216 232.296 184.135 233.435 184.192 233.832C184.25 234.229 184.694 234.801 184.909 235.037C185.139 235.661 184.861 235.723 184.694 235.675C182.471 233.761 180.392 232.627 180.177 232.414C179.962 232.201 180.32 232.06 180.464 231.705C180.578 231.422 180.559 222.134 180.535 217.526C180.306 219.171 178.265 223.434 177.237 225.396C176.098 224.945 174.533 219.886 173.88 217.364C174.044 218.202 174.131 226.449 174.154 230.571C174.154 230.524 174.24 230.571 174.584 231.138Z" fill="#FF00E0"/>
<path d="M160.961 229.862C159.24 229.465 156.467 229.697 155.296 229.862V229.295H155.44C155.87 229.011 156.085 228.444 156.157 228.352C156.214 228.279 156.181 219.45 156.157 215.045C156.228 214.832 156.157 207.672 156.157 207.175C156.157 206.778 155.583 206.348 155.296 206.183V205.687H160.602C160.66 205.687 160.626 205.899 160.602 206.041C160.373 206.325 160.268 206.585 160.244 206.679V216.108H163.972V206.679C163.972 206.452 163.494 206.159 163.255 206.041V205.757H168.346C168.633 205.757 168.705 205.852 168.705 205.899C168.303 206.41 168.107 207.057 168.059 207.317C168.002 207.601 168.083 221.473 168.131 228.373C168.188 228.713 168.25 228.94 168.274 229.011C168.332 229.351 168.92 230.004 169.206 230.287C169.436 230.854 169.015 230.807 168.776 230.713C168.088 230.372 165.143 230.098 163.757 230.004C163.585 230.004 163.494 229.909 163.47 229.862C163.241 229.862 163.853 229.295 164.187 229.011V220.22H160.387V228.657C160.846 229.394 160.961 229.767 160.961 229.862Z" fill="#FF00E0"/>
<path d="M152.428 229.578H146.405V229.153H146.549C146.663 229.096 147.027 228.562 147.194 228.302V210.295C147.366 210.181 147.576 209.728 147.696 209.515H144.756C143.781 209.969 143.25 210.649 143.107 210.933H142.749C143.059 209.846 143.652 207.572 143.537 207.175C143.423 206.778 142.916 206.254 142.677 206.041V205.687H155.081V206.041C154.565 206.495 154.436 207.128 154.436 207.388C154.436 209.373 154.866 210.366 155.01 210.933C155.124 211.387 154.866 211.405 154.723 211.358C154.269 210.815 153.274 209.699 152.93 209.586C152.586 209.472 151.687 209.539 151.281 209.586V227.451C151.281 228.075 151.52 228.42 151.64 228.515C151.984 229.025 152.309 229.437 152.428 229.578Z" fill="#FF00E0"/>
<path d="M140.813 229.649H134.933C135.048 229.593 135.65 228.94 135.937 228.515V207.53C135.937 206.793 135.268 206.23 134.933 206.041V205.687H140.454C140.569 205.743 140.167 206.325 139.952 206.608L140.167 228.586C140.454 229.38 140.717 229.626 140.813 229.649Z" fill="#FF00E0"/>
<path d="M131.635 207.403V217.738C130.918 218.281 129.472 219.395 129.412 219.511C129.355 219.624 129.388 219.7 129.412 219.724C130.105 220.669 131.534 223.524 131.706 227.381C131.73 227.452 131.807 227.607 131.922 227.664L133.069 229.578H127.477C127.667 227.691 127.505 223.271 125.337 220.66C125.165 220.892 124.694 221.369 124.178 221.426V228.586C124.178 228.61 124.207 228.671 124.321 228.728C124.436 228.784 124.608 229.318 124.68 229.578H119.445V229.295C119.421 229.224 119.431 229.026 119.66 228.799C119.89 228.572 120.043 228.09 120.091 227.877V207.814C120.21 207.837 120.464 207.87 120.521 207.814C120.578 207.757 120.545 207.696 120.521 207.672L118.729 206.112V205.687H129.627L131.635 207.403ZM124.034 209.231V217.242C124.727 216.959 126.415 216.364 127.619 216.25L127.691 209.231H124.034Z" fill="#FF00E0"/>
<path fill-rule="evenodd" clip-rule="evenodd" d="M106.109 227.735L107.902 229.507H115.502L117.653 227.735V207.388L115.86 205.687H107.902L106.109 207.388V227.735ZM113.853 209.373L113.638 225.679H111.881H110.124V209.373H113.853Z" fill="#FF00E0"/>
<path d="M94.6367 229.578H104.747C104.89 229.602 105.134 229.564 104.962 229.224C104.388 228.77 104.34 228.231 104.388 228.019V217.243C104.388 216.789 104.627 216.108 104.747 215.825C103.485 216.165 100.253 216.108 98.7954 216.037C99.1396 217.115 98.9388 219.275 98.7954 220.22C99.1969 219.88 100.158 219.937 100.588 220.007V225.537H97.1463V209.373H100.588V212.563C101.678 212.337 103.576 212.469 104.388 212.563V207.175L102.596 205.545H94.9952L92.7725 207.388V227.381L94.6367 229.578Z" fill="#FF00E0"/>
<path d="M90.9082 207.687V218.022C90.1919 218.565 88.7456 219.679 88.6855 219.794C88.6282 219.908 88.6616 219.984 88.6855 220.007C89.3786 220.953 90.8074 223.808 90.9795 227.664C91.0034 227.735 91.0806 227.891 91.1953 227.948L92.3427 229.862H86.75C86.9408 227.975 86.7784 223.555 84.6103 220.944C84.4388 221.175 83.9672 221.653 83.4511 221.709V228.87C83.4513 228.893 83.4802 228.955 83.5947 229.011C83.7094 229.068 83.8814 229.602 83.9531 229.862H78.7187V229.579C78.6948 229.508 78.7045 229.309 78.9336 229.082C79.163 228.856 79.3164 228.373 79.3642 228.161V208.097C79.4837 208.121 79.7375 208.154 79.7949 208.097C79.8517 208.041 79.8187 207.979 79.7949 207.955L78.0019 206.396V205.97H88.9004L90.9082 207.687ZM83.3076 209.515V217.526C84.0006 217.242 85.688 216.647 86.8925 216.534L86.9648 209.515H83.3076Z" fill="#FF00E0"/>
<path d="M74.3454 205.828C74.288 207.7 75.5643 215.517 76.2097 219.156C76.3817 221.652 77.5242 222.938 78.0739 223.269C78.1882 223.269 78.1217 223.647 78.0739 223.836C77.5577 223.723 77.1411 223.789 76.9977 223.836C77.0695 226.529 77.6428 228.088 77.6432 228.302C77.6432 228.472 78.121 229.082 78.36 229.365V229.862C76.9259 229.862 74.2254 229.909 73.0544 229.933C72.9975 229.932 73.2695 229.318 73.4128 229.011C73.47 228.727 73.2461 226.199 73.1266 224.97C70.488 225.31 68.9196 225.774 68.4655 225.963C68.1788 227.026 68.0353 228.373 67.9636 228.656C67.9062 228.883 68.2269 229.413 68.3942 229.65C65.6982 229.593 63.3509 229.862 62.5143 230.004L63.446 229.011C64.5932 227.253 64.6417 225.017 64.5222 224.119C64.6368 223.722 63.8523 223.623 63.446 223.623V223.056C63.5177 223.056 63.7763 223.028 64.235 222.914C64.6939 222.801 65.3344 221.261 65.5974 220.504C66.7446 216.591 67.414 211.075 67.6052 208.806H67.9636C68.5849 208.924 69.8993 209.118 70.1862 208.947C70.473 208.777 68.2504 206.797 67.1032 205.828H74.3454ZM71.3337 210.791C70.5306 213.173 69.7088 218.968 69.3981 221.568C69.8763 221.449 71.1473 221.184 72.4089 221.071C72.1938 218.967 71.6778 213.967 71.3337 210.791Z" fill="#FF00E0"/>
<path d="M51.1138 230.854C48.5325 231.989 46.4532 233.596 45.7361 234.257L45.5927 234.116L45.8078 233.478L46.0947 232.414L46.1664 230.571L45.7361 227.168C45.5688 225.537 44.9618 219.369 43.8719 207.743C43.9866 207.516 42.8681 206.466 42.2945 205.97H47.9589C47.8289 205.97 47.6004 206.452 47.457 206.75C47.3136 206.807 48.3174 216.945 48.891 222.191C48.9627 222.191 50.9704 212.091 52.1176 207.034C52.175 206.807 51.4962 206.23 51.1138 205.97H56.4197C56.2285 206.136 55.8174 206.509 55.7027 206.679C55.5903 206.846 57.1654 216.547 58.0162 221.676C58.0609 219.937 59.7284 211.484 60.6501 207.034C60.478 206.693 60.0048 206.183 59.7897 205.97H65.3107C64.9283 206.348 64.1348 207.275 64.0201 207.955C63.9054 208.636 62.2992 218.211 61.5105 222.914C61.1998 224.545 60.5784 228.033 60.5784 228.94C60.5784 229.848 60.7696 230.122 60.8652 230.146C57.5956 230.372 55.9178 231.233 55.4876 231.634V230.854L53.5516 216.534L51.1138 230.854Z" fill="#FF00E0"/>
</svg>
