<svg width="230" height="230" viewBox="0 0 230 230" fill="none" xmlns="http://www.w3.org/2000/svg">
<path d="M13.4021 1.50123H13.5698C16.5543 1.54462 19.5464 2.73561 21.8321 5.06126C24.3082 7.58068 25.4531 10.938 25.2906 14.2633L25.2586 14.9195L25.719 15.388L59.784 50.0488L60.8538 51.1373L61.9236 50.0488L91.2044 20.2558L83.1855 44.3226L75.114 52.5619L74.0841 53.6133L75.1157 54.663L113.553 93.7727L114.623 94.8612L115.693 93.7727L154.13 54.663L155.163 53.6116L154.13 52.5602L146.006 44.294L137.986 20.2038L167.295 50.049L168.365 51.1379L169.435 50.0498L203.445 15.4716L203.91 14.9993L203.874 14.3378C203.691 10.9973 204.86 7.60564 207.36 5.06191C209.691 2.69001 212.727 1.50062 215.765 1.50062C218.802 1.50062 221.838 2.69001 224.169 5.06185C228.832 9.80684 228.832 17.495 224.169 22.2396C221.671 24.7817 218.351 25.9604 215.094 25.7758L214.416 25.7374L213.939 26.2216L179.929 60.7998L178.895 61.8512L179.928 62.903L209.36 92.849L185.708 84.6903L177.587 76.4278L176.517 75.3393L175.448 76.4278L137.01 115.537L135.977 116.589L137.01 117.64L219.085 201.151L223.39 227.335L197.735 222.963L115.639 139.459L114.569 138.371L113.499 139.46L31.485 222.909L5.83209 227.28L10.161 201.152L92.2096 117.668L93.2433 116.617L92.2093 115.565L53.7452 76.4555L52.6754 75.3678L51.6059 76.4559L43.5125 84.6909L19.8606 92.8496L49.2383 62.9581L50.2712 61.9071L49.2387 60.8557L15.2281 26.223L14.7518 25.738L14.0731 25.7764C10.815 25.961 7.49573 24.7824 4.99737 22.2403C0.334193 17.4953 0.334198 9.80722 4.99732 5.06253C7.32861 2.69062 10.365 1.50123 13.4021 1.50123Z" fill="black" stroke="#4C6890" stroke-width="3"/>
<path d="M67.5582 127.061L61.5133 135.468L31.6667 115.731L61.5133 95.9942L67.5582 104.035L49.4235 115.731L67.5582 127.061Z" fill="#FF00E0" stroke="#FF00E0"/>
<path d="M162.442 127.061L168.487 135.468L198.333 115.731L168.487 95.9942L162.442 104.035L180.576 115.731L162.442 127.061Z" fill="#FF00E0" stroke="#FF00E0"/>
<path d="M98.4069 198.333H87.6041L107.72 154.474H118.15L98.4069 198.333Z" fill="#FF00E0" stroke="#FF00E0"/>
<path d="M119.136 75.5263H108.333L128.449 31.6667H138.879L119.136 75.5263Z" fill="#FF00E0" stroke="#FF00E0"/>
</svg>
