<svg width="230" height="230" viewBox="0 0 230 230" fill="none" xmlns="http://www.w3.org/2000/svg">
<path d="M13.4023 1.50098H13.4414C16.3732 1.51127 19.3222 2.62887 21.6113 4.84277L21.832 5.06152C24.3081 7.58093 25.4535 10.9384 25.291 14.2637L25.2588 14.9199L25.7188 15.3877L59.7842 50.0488L60.8535 51.1377L61.9238 50.0488L91.2041 20.2559L83.1855 44.3213L75.1143 52.5615L74.084 53.6133L75.1162 54.6631L113.553 93.7725L114.623 94.8613L115.692 93.7725L154.13 54.6631L155.163 53.6113L154.13 52.5605L146.004 44.292L137.985 20.2031L167.295 50.0488L168.364 51.1377L169.435 50.0498L203.445 15.4717L203.91 14.999L203.874 14.3379C203.697 11.1019 204.788 7.81747 207.129 5.30273L207.359 5.06152C209.691 2.68963 212.728 1.50098 215.765 1.50098C218.707 1.501 221.649 2.61656 223.949 4.84277L224.169 5.06152C228.759 9.73225 228.831 17.2549 224.385 22.0146L224.169 22.2393C221.67 24.7813 218.352 25.9599 215.094 25.7754L214.416 25.7373L213.939 26.2217L179.929 60.7998L178.895 61.8516L179.929 62.9033L209.359 92.8486L185.708 84.6904L177.587 76.4277L176.518 75.3389L175.447 76.4277L137.011 115.537L135.977 116.589L137.011 117.641L219.084 201.149L223.39 227.334L197.734 222.963L115.639 139.459L114.569 138.371L113.499 139.46L31.4844 222.908L5.83203 227.279L10.1602 201.151L92.21 117.668L93.2432 116.616L92.209 115.565L53.7451 76.4551L52.6758 75.3682L51.6055 76.4561L43.5117 84.6904L19.8613 92.8486L49.2383 62.958L50.2715 61.9072L49.2383 60.8555L15.2285 26.2227L14.752 25.7383L14.0732 25.7764C10.9171 25.9552 7.7035 24.8546 5.23438 22.4746L4.99707 22.2402C0.40693 17.5694 0.335485 10.0467 4.78223 5.28711L4.99707 5.0625C7.32836 2.69059 10.3653 1.50098 13.4023 1.50098Z" fill="black" stroke="#774C90" stroke-width="3"/>
<path d="M67.5582 127.061L61.5133 135.468L31.6667 115.731L61.5133 95.9942L67.5582 104.035L49.4235 115.731L67.5582 127.061Z" fill="#FF00E0" stroke="#FF00E0"/>
<path d="M162.442 127.061L168.487 135.468L198.333 115.731L168.487 95.9942L162.442 104.035L180.576 115.731L162.442 127.061Z" fill="#FF00E0" stroke="#FF00E0"/>
<path d="M98.4069 198.333H87.6041L107.72 154.474H118.15L98.4069 198.333Z" fill="#FF00E0" stroke="#FF00E0"/>
<path d="M119.136 75.5263H108.333L128.449 31.6667H138.879L119.136 75.5263Z" fill="#FF00E0" stroke="#FF00E0"/>
</svg>
