<svg width="48" height="56" viewBox="0 0 48 56" fill="none" xmlns="http://www.w3.org/2000/svg">
<path fill-rule="evenodd" clip-rule="evenodd" d="M21.1538 13.25C21.1538 12.4544 21.4699 11.6913 22.0325 11.1287C22.5951 10.5661 23.3582 10.25 24.1538 10.25C24.9495 10.25 25.7125 10.5661 26.2751 11.1287C26.8377 11.6913 27.1538 12.4544 27.1538 13.25C27.1538 14.0456 26.8377 14.8087 26.2751 15.3713C25.7125 15.9339 24.9495 16.25 24.1538 16.25C23.3582 16.25 22.5951 15.9339 22.0325 15.3713C21.4699 14.8087 21.1538 14.0456 21.1538 13.25ZM21.1538 17.75C20.1592 17.75 19.2054 18.1451 18.5022 18.8483C17.7989 19.5516 17.4038 20.5054 17.4038 21.5C17.4038 22.0967 17.6409 22.669 18.0628 23.091C18.4848 23.5129 19.0571 23.75 19.6538 23.75H28.6538C29.2505 23.75 29.8228 23.5129 30.2448 23.091C30.6668 22.669 30.9038 22.0967 30.9038 21.5C30.9038 20.5054 30.5087 19.5516 29.8055 18.8483C29.1022 18.1451 28.1484 17.75 27.1538 17.75H21.1538Z" fill="#F2F2F2"/>
<path d="M10.7905 39.6543H8.51123V38.7344H10.7905C11.2319 38.7344 11.5894 38.6641 11.8628 38.5234C12.1362 38.3828 12.3354 38.1875 12.4604 37.9375C12.5894 37.6875 12.6538 37.4023 12.6538 37.082C12.6538 36.7891 12.5894 36.5137 12.4604 36.2559C12.3354 35.998 12.1362 35.791 11.8628 35.6348C11.5894 35.4746 11.2319 35.3945 10.7905 35.3945H8.7749V43H7.64404V34.4688H10.7905C11.4351 34.4688 11.98 34.5801 12.4253 34.8027C12.8706 35.0254 13.2085 35.334 13.439 35.7285C13.6694 36.1191 13.7847 36.5664 13.7847 37.0703C13.7847 37.6172 13.6694 38.084 13.439 38.4707C13.2085 38.8574 12.8706 39.1523 12.4253 39.3555C11.98 39.5547 11.4351 39.6543 10.7905 39.6543ZM16.1343 37.6562V43H15.0503V36.6602H16.105L16.1343 37.6562ZM18.1147 36.625L18.1089 37.6328C18.019 37.6133 17.9331 37.6016 17.8511 37.5977C17.7729 37.5898 17.6831 37.5859 17.5815 37.5859C17.3315 37.5859 17.1108 37.625 16.9194 37.7031C16.728 37.7812 16.5659 37.8906 16.4331 38.0312C16.3003 38.1719 16.1948 38.3398 16.1167 38.5352C16.0425 38.7266 15.9937 38.9375 15.9702 39.168L15.6655 39.3438C15.6655 38.9609 15.7026 38.6016 15.7769 38.2656C15.855 37.9297 15.9741 37.6328 16.1343 37.375C16.2944 37.1133 16.4976 36.9102 16.7437 36.7656C16.9937 36.6172 17.2905 36.543 17.6343 36.543C17.7124 36.543 17.8022 36.5527 17.9038 36.5723C18.0054 36.5879 18.0757 36.6055 18.1147 36.625ZM18.7124 39.9004V39.7656C18.7124 39.3086 18.7788 38.8848 18.9116 38.4941C19.0444 38.0996 19.2358 37.7578 19.4858 37.4688C19.7358 37.1758 20.0386 36.9492 20.394 36.7891C20.7495 36.625 21.1479 36.543 21.5894 36.543C22.0347 36.543 22.4351 36.625 22.7905 36.7891C23.1499 36.9492 23.4546 37.1758 23.7046 37.4688C23.9585 37.7578 24.1519 38.0996 24.2847 38.4941C24.4175 38.8848 24.4839 39.3086 24.4839 39.7656V39.9004C24.4839 40.3574 24.4175 40.7812 24.2847 41.1719C24.1519 41.5625 23.9585 41.9043 23.7046 42.1973C23.4546 42.4863 23.1519 42.7129 22.7964 42.877C22.4448 43.0371 22.0464 43.1172 21.6011 43.1172C21.1558 43.1172 20.7554 43.0371 20.3999 42.877C20.0444 42.7129 19.7397 42.4863 19.4858 42.1973C19.2358 41.9043 19.0444 41.5625 18.9116 41.1719C18.7788 40.7812 18.7124 40.3574 18.7124 39.9004ZM19.7964 39.7656V39.9004C19.7964 40.2168 19.8335 40.5156 19.9077 40.7969C19.9819 41.0742 20.0933 41.3203 20.2417 41.5352C20.394 41.75 20.5835 41.9199 20.8101 42.0449C21.0366 42.166 21.3003 42.2266 21.6011 42.2266C21.8979 42.2266 22.1577 42.166 22.3804 42.0449C22.6069 41.9199 22.7944 41.75 22.9429 41.5352C23.0913 41.3203 23.2026 41.0742 23.2769 40.7969C23.355 40.5156 23.394 40.2168 23.394 39.9004V39.7656C23.394 39.4531 23.355 39.1582 23.2769 38.8809C23.2026 38.5996 23.0894 38.3516 22.937 38.1367C22.7886 37.918 22.6011 37.7461 22.3745 37.6211C22.1519 37.4961 21.8901 37.4336 21.5894 37.4336C21.2925 37.4336 21.0308 37.4961 20.8042 37.6211C20.5815 37.7461 20.394 37.918 20.2417 38.1367C20.0933 38.3516 19.9819 38.5996 19.9077 38.8809C19.8335 39.1582 19.7964 39.4531 19.7964 39.7656ZM27.2905 43H26.2065V36.1094C26.2065 35.6289 26.3003 35.2227 26.4878 34.8906C26.6753 34.5586 26.9429 34.3066 27.2905 34.1348C27.6382 33.9629 28.0503 33.877 28.5269 33.877C28.8081 33.877 29.0835 33.9121 29.353 33.9824C29.6226 34.0488 29.8999 34.1328 30.1851 34.2344L30.0034 35.1484C29.8237 35.0781 29.6147 35.0117 29.3765 34.9492C29.1421 34.8828 28.8843 34.8496 28.603 34.8496C28.1382 34.8496 27.8022 34.9551 27.5952 35.166C27.3921 35.373 27.2905 35.6875 27.2905 36.1094V43ZM28.5854 36.6602V37.4922H25.2046V36.6602H28.5854ZM30.7183 36.6602V43H29.6343V36.6602H30.7183ZM33.6772 34V43H32.5874V34H33.6772ZM38.0483 43.1172C37.6069 43.1172 37.2065 43.043 36.8472 42.8945C36.4917 42.7422 36.1851 42.5293 35.9272 42.2559C35.6733 41.9824 35.478 41.6582 35.3413 41.2832C35.2046 40.9082 35.1362 40.498 35.1362 40.0527V39.8066C35.1362 39.291 35.2124 38.832 35.3647 38.4297C35.5171 38.0234 35.7241 37.6797 35.9858 37.3984C36.2476 37.1172 36.5444 36.9043 36.8765 36.7598C37.2085 36.6152 37.5522 36.543 37.9077 36.543C38.3608 36.543 38.7515 36.6211 39.0796 36.7773C39.4116 36.9336 39.6831 37.1523 39.894 37.4336C40.105 37.7109 40.2612 38.0391 40.3628 38.418C40.4644 38.793 40.5151 39.2031 40.5151 39.6484V40.1348H35.7808V39.25H39.4312V39.168C39.4155 38.8867 39.3569 38.6133 39.2554 38.3477C39.1577 38.082 39.0015 37.8633 38.7866 37.6914C38.5718 37.5195 38.2788 37.4336 37.9077 37.4336C37.6616 37.4336 37.4351 37.4863 37.228 37.5918C37.021 37.6934 36.8433 37.8457 36.6948 38.0488C36.5464 38.252 36.4312 38.5 36.3491 38.793C36.2671 39.0859 36.2261 39.4238 36.2261 39.8066V40.0527C36.2261 40.3535 36.2671 40.6367 36.3491 40.9023C36.4351 41.1641 36.5581 41.3945 36.7183 41.5938C36.8823 41.793 37.0796 41.9492 37.3101 42.0625C37.5444 42.1758 37.8101 42.2324 38.1069 42.2324C38.4897 42.2324 38.814 42.1543 39.0796 41.998C39.3452 41.8418 39.5776 41.6328 39.7769 41.3711L40.4331 41.8926C40.2964 42.0996 40.1226 42.2969 39.9116 42.4844C39.7007 42.6719 39.4409 42.8242 39.1323 42.9414C38.8276 43.0586 38.4663 43.1172 38.0483 43.1172Z" fill="#F2F2F2"/>
</svg>
