<svg width="80" height="44" viewBox="0 0 80 44" fill="none" xmlns="http://www.w3.org/2000/svg">
<path fill-rule="evenodd" clip-rule="evenodd" d="M35.3889 7.11277C35.3889 5.75632 35.9256 4.45204 36.8839 3.49806C37.8422 2.53662 39.1456 2 40.5 2C41.8544 2 43.1578 2.53662 44.1161 3.49806C45.0744 4.45204 45.6111 5.75632 45.6111 7.11277C45.6111 8.46176 45.0744 9.76604 44.1161 10.72C43.1578 11.6815 41.8544 12.2181 40.5 12.2181C39.1456 12.2181 37.8422 11.6815 36.8839 10.72C35.9256 9.76604 35.3889 8.46176 35.3889 7.11277ZM35.3889 14.7745C33.6958 14.7745 32.0667 15.4452 30.8719 16.6452C29.6708 17.8451 29 19.4699 29 21.1617C29 22.1828 29.4025 23.1517 30.1244 23.8746C30.84 24.5901 31.8175 25 32.8333 25H48.1667C49.1825 25 50.16 24.5901 50.8756 23.8746C51.5975 23.1517 52 22.1828 52 21.1617C52 19.4699 51.3292 17.8451 50.1281 16.6452C48.9333 15.4452 47.3042 14.7745 45.6111 14.7745H35.3889Z" fill="#F2F2F2"/>
<path d="M24.7327 37.1312H22.0322V35.8385H24.7327C25.2577 35.8385 25.6848 35.7401 26.0051 35.5369C26.3299 35.34 26.5657 35.0691 26.717 34.7121C26.8682 34.3613 26.9439 33.9612 26.9439 33.5118C26.9439 33.0994 26.8682 32.7116 26.717 32.3485C26.5657 31.9853 26.3299 31.696 26.0051 31.4744C25.6848 31.2467 25.2577 31.1359 24.7327 31.1359H22.3436V41.84H21V29.8371H24.7327C25.4979 29.8371 26.1475 29.991 26.6725 30.3049C27.2019 30.6188 27.6023 31.0497 27.8782 31.6098C28.1496 32.1577 28.2875 32.7855 28.2875 33.4934C28.2875 34.2628 28.1496 34.9214 27.8782 35.4631C27.6023 36.0109 27.2019 36.4233 26.6725 36.7126C26.1475 36.9896 25.4979 37.1312 24.7327 37.1312ZM31.0726 34.3182V41.84H29.7868V32.9148H31.0414L31.0726 34.3182ZM33.4261 32.8655L33.4172 34.2874C33.3104 34.2566 33.2081 34.2443 33.1102 34.2382C33.0168 34.2259 32.91 34.2197 32.7899 34.2197C32.4962 34.2197 32.2337 34.2751 32.0068 34.3859C31.7799 34.4967 31.5886 34.6506 31.4285 34.8475C31.2728 35.0445 31.1482 35.2784 31.0548 35.5554C30.9658 35.8262 30.9079 36.1217 30.8812 36.4479L30.5164 36.6941C30.5164 36.1525 30.5609 35.6477 30.6499 35.1738C30.7433 34.706 30.8857 34.2874 31.0726 33.9242C31.2639 33.5549 31.5041 33.2718 31.7977 33.0687C32.0958 32.8594 32.4473 32.7547 32.8522 32.7547C32.9456 32.7547 33.0524 32.767 33.1725 32.7917C33.2926 32.8163 33.3771 32.8409 33.4261 32.8655ZM34.1335 37.4759V37.285C34.1335 36.6449 34.2136 36.0478 34.3693 35.5C34.5294 34.9399 34.7563 34.4598 35.05 34.0535C35.348 33.6411 35.7084 33.3272 36.1266 33.0994C36.5493 32.8655 37.0209 32.7547 37.5459 32.7547C38.0753 32.7547 38.5513 32.8655 38.9695 33.0994C39.3966 33.3272 39.7615 33.6411 40.0551 34.0535C40.3576 34.4598 40.589 34.9399 40.7447 35.5C40.9004 36.0478 40.9805 36.6449 40.9805 37.285V37.4759C40.9805 38.1222 40.9004 38.7131 40.7447 39.267C40.589 39.8149 40.3576 40.295 40.0551 40.7074C39.7615 41.1136 39.4011 41.4337 38.9784 41.6615C38.5602 41.8892 38.0886 42 37.5592 42C37.0342 42 36.5582 41.8892 36.1355 41.6615C35.7129 41.4337 35.3525 41.1136 35.05 40.7074C34.7563 40.295 34.5294 39.8149 34.3693 39.267C34.2136 38.7131 34.1335 38.1222 34.1335 37.4759ZM35.4192 37.285V37.4759C35.4192 37.919 35.4637 38.3438 35.5527 38.7377C35.6417 39.1255 35.7707 39.4763 35.9487 39.7779C36.1266 40.0795 36.3535 40.3196 36.6205 40.492C36.8919 40.6643 37.2033 40.7505 37.5592 40.7505C37.9107 40.7505 38.2221 40.6643 38.4846 40.492C38.756 40.3196 38.9784 40.0795 39.152 39.7779C39.3299 39.4763 39.4589 39.1255 39.5479 38.7377C39.6413 38.3438 39.6858 37.919 39.6858 37.4759V37.285C39.6858 36.848 39.6413 36.4295 39.5479 36.0417C39.4589 35.6477 39.3255 35.2969 39.1475 34.9953C38.9695 34.6875 38.7471 34.4474 38.4802 34.2689C38.2132 34.0966 37.9018 34.0043 37.5459 34.0043C37.1944 34.0043 36.883 34.0966 36.616 34.2689C36.3491 34.4474 36.1266 34.6875 35.9487 34.9953C35.7707 35.2969 35.6417 35.6477 35.5527 36.0417C35.4637 36.4295 35.4192 36.848 35.4192 37.285ZM44.3084 41.84H43.0226V32.1454C43.0226 31.4683 43.1338 30.8958 43.3563 30.428C43.5787 29.9602 43.899 29.6094 44.3084 29.3632C44.7221 29.1231 45.2115 29 45.7765 29C46.1102 29 46.4394 29.0492 46.7553 29.1477C47.0756 29.2462 47.4049 29.3632 47.743 29.5047L47.5294 30.7912C47.3159 30.6927 47.0667 30.6004 46.7864 30.508C46.5062 30.4157 46.1992 30.3726 45.8655 30.3726C45.3183 30.3726 44.9179 30.5204 44.6732 30.8158C44.4329 31.1051 44.3084 31.5483 44.3084 32.1454V41.84ZM45.8477 32.9148V34.0904H41.8347V32.9148H45.8477ZM48.3792 32.9148V41.84H47.089V32.9148H48.3792ZM51.8895 29.1723V41.84H50.5948V29.1723H51.8895ZM57.0726 42C56.552 42 56.076 41.8954 55.6489 41.6861C55.2262 41.4768 54.8614 41.1752 54.5589 40.7874C54.2563 40.4058 54.025 39.9503 53.8604 39.4209C53.7002 38.8916 53.6201 38.3191 53.6201 37.6913V37.3466C53.6201 36.6203 53.7091 35.974 53.8915 35.4077C54.0695 34.8352 54.3142 34.3551 54.6256 33.955C54.937 33.5611 55.2885 33.2595 55.6845 33.0563C56.076 32.8532 56.4853 32.7547 56.9079 32.7547C57.4463 32.7547 57.909 32.8655 58.296 33.081C58.692 33.3026 59.0123 33.6103 59.2615 34.0043C59.5151 34.3982 59.6975 34.8598 59.8176 35.3892C59.9422 35.9186 60 36.4972 60 37.1188V37.8082H54.3854V36.5587H58.7142V36.4479C58.6964 36.0478 58.6253 35.6662 58.5051 35.2907C58.3895 34.9152 58.2026 34.6075 57.949 34.3674C57.6954 34.1274 57.3484 34.0043 56.9079 34.0043C56.6143 34.0043 56.3474 34.0781 56.0982 34.2259C55.8535 34.3736 55.6444 34.5829 55.4665 34.8722C55.293 35.1553 55.155 35.5062 55.0572 35.9186C54.9593 36.331 54.9103 36.8049 54.9103 37.3466V37.6913C54.9103 38.116 54.9593 38.5099 55.0572 38.8854C55.1595 39.2547 55.3063 39.581 55.4976 39.858C55.6889 40.1411 55.9247 40.3565 56.1961 40.5166C56.4764 40.6766 56.7923 40.7566 57.1437 40.7566C57.5975 40.7566 57.9802 40.6458 58.296 40.4304C58.6119 40.2088 58.8877 39.9134 59.1235 39.544L59.9021 40.2765C59.742 40.572 59.5329 40.849 59.2837 41.1136C59.0346 41.3783 58.7276 41.5876 58.3583 41.7538C57.9979 41.92 57.5708 42 57.0726 42Z" fill="#F2F2F2"/>
</svg>
