<svg width="55" height="56" viewBox="0 0 55 56" fill="none" xmlns="http://www.w3.org/2000/svg">
<path d="M34.4619 10H32.4619V8H22.4619V10H20.4619C19.3619 10 18.4619 10.9 18.4619 12V13C18.4619 15.55 20.3819 17.63 22.8519 17.94C23.1682 18.6894 23.6621 19.3505 24.2911 19.8662C24.92 20.3819 25.6651 20.7367 26.4619 20.9V24H22.4619V26H32.4619V24H28.4619V20.9C29.2587 20.7367 30.0038 20.3819 30.6327 19.8662C31.2617 19.3505 31.7557 18.6894 32.0719 17.94C34.5419 17.63 36.4619 15.55 36.4619 13V12C36.4619 10.9 35.5619 10 34.4619 10ZM20.4619 13V12H22.4619V15.82C21.3019 15.4 20.4619 14.3 20.4619 13ZM34.4619 13C34.4619 14.3 33.6219 15.4 32.4619 15.82V12H34.4619V13Z" fill="#F2F2F2"/>
<path d="M6.95215 34.4688H9.77637C10.417 34.4688 10.958 34.5664 11.3994 34.7617C11.8447 34.957 12.1826 35.2461 12.4131 35.6289C12.6475 36.0078 12.7646 36.4746 12.7646 37.0293C12.7646 37.4199 12.6846 37.7773 12.5244 38.1016C12.3682 38.4219 12.1416 38.6953 11.8447 38.9219C11.5518 39.1445 11.2002 39.3105 10.79 39.4199L10.4736 39.543H7.81934L7.80762 38.623H9.81152C10.2178 38.623 10.5557 38.5527 10.8252 38.4121C11.0947 38.2676 11.2979 38.0742 11.4346 37.832C11.5713 37.5898 11.6396 37.3223 11.6396 37.0293C11.6396 36.7012 11.5752 36.4141 11.4463 36.168C11.3174 35.9219 11.1143 35.7324 10.8369 35.5996C10.5635 35.4629 10.21 35.3945 9.77637 35.3945H8.08301V43H6.95215V34.4688ZM11.9385 43L9.86426 39.1328L11.042 39.127L13.1455 42.9297V43H11.9385ZM17.9209 41.916V38.6523C17.9209 38.4023 17.8701 38.1855 17.7686 38.002C17.6709 37.8145 17.5225 37.6699 17.3232 37.5684C17.124 37.4668 16.8779 37.416 16.585 37.416C16.3115 37.416 16.0713 37.4629 15.8643 37.5566C15.6611 37.6504 15.501 37.7734 15.3838 37.9258C15.2705 38.0781 15.2139 38.2422 15.2139 38.418H14.1299C14.1299 38.1914 14.1885 37.9668 14.3057 37.7441C14.4229 37.5215 14.5908 37.3203 14.8096 37.1406C15.0322 36.957 15.2979 36.8125 15.6064 36.707C15.9189 36.5977 16.2666 36.543 16.6494 36.543C17.1104 36.543 17.5166 36.6211 17.8682 36.7773C18.2236 36.9336 18.501 37.1699 18.7002 37.4863C18.9033 37.7988 19.0049 38.1914 19.0049 38.6641V41.6172C19.0049 41.8281 19.0225 42.0527 19.0576 42.291C19.0967 42.5293 19.1533 42.7344 19.2275 42.9062V43H18.0967C18.042 42.875 17.999 42.709 17.9678 42.502C17.9365 42.291 17.9209 42.0957 17.9209 41.916ZM18.1084 39.1562L18.1201 39.918H17.0244C16.7158 39.918 16.4404 39.9434 16.1982 39.9941C15.9561 40.041 15.7529 40.1133 15.5889 40.2109C15.4248 40.3086 15.2998 40.4316 15.2139 40.5801C15.1279 40.7246 15.085 40.8945 15.085 41.0898C15.085 41.2891 15.1299 41.4707 15.2197 41.6348C15.3096 41.7988 15.4443 41.9297 15.624 42.0273C15.8076 42.1211 16.0322 42.168 16.2979 42.168C16.6299 42.168 16.9229 42.0977 17.1768 41.957C17.4307 41.8164 17.6318 41.6445 17.7803 41.4414C17.9326 41.2383 18.0146 41.041 18.0264 40.8496L18.4893 41.3711C18.4619 41.5352 18.3877 41.7168 18.2666 41.916C18.1455 42.1152 17.9834 42.3066 17.7803 42.4902C17.5811 42.6699 17.3428 42.8203 17.0654 42.9414C16.792 43.0586 16.4834 43.1172 16.1396 43.1172C15.71 43.1172 15.333 43.0332 15.0088 42.8652C14.6885 42.6973 14.4385 42.4727 14.2588 42.1914C14.083 41.9062 13.9951 41.5879 13.9951 41.2363C13.9951 40.8965 14.0615 40.5977 14.1943 40.3398C14.3271 40.0781 14.5186 39.8613 14.7686 39.6895C15.0186 39.5137 15.3193 39.3809 15.6709 39.291C16.0225 39.2012 16.415 39.1562 16.8486 39.1562H18.1084ZM21.7939 38.0137V43H20.71V36.6602H21.7354L21.7939 38.0137ZM21.5361 39.5898L21.085 39.5723C21.0889 39.1387 21.1533 38.7383 21.2783 38.3711C21.4033 38 21.5791 37.6777 21.8057 37.4043C22.0322 37.1309 22.3018 36.9199 22.6143 36.7715C22.9307 36.6191 23.2803 36.543 23.6631 36.543C23.9756 36.543 24.2568 36.5859 24.5068 36.6719C24.7568 36.7539 24.9697 36.8867 25.1455 37.0703C25.3252 37.2539 25.4619 37.4922 25.5557 37.7852C25.6494 38.0742 25.6963 38.4277 25.6963 38.8457V43H24.6064V38.834C24.6064 38.502 24.5576 38.2363 24.46 38.0371C24.3623 37.834 24.2197 37.6875 24.0322 37.5977C23.8447 37.5039 23.6143 37.457 23.3408 37.457C23.0713 37.457 22.8252 37.5137 22.6025 37.627C22.3838 37.7402 22.1943 37.8965 22.0342 38.0957C21.8779 38.2949 21.7549 38.5234 21.665 38.7812C21.5791 39.0352 21.5361 39.3047 21.5361 39.5898ZM28.4326 34V43H27.3428V34H28.4326ZM32.3057 36.6602L29.54 39.6191L27.9932 41.2246L27.9053 40.0703L29.0127 38.7461L30.9814 36.6602H32.3057ZM31.3154 43L29.0537 39.9766L29.6162 39.0098L32.5928 43H31.3154ZM34.6025 36.6602V43H33.5127V36.6602H34.6025ZM33.4307 34.9785C33.4307 34.8027 33.4834 34.6543 33.5889 34.5332C33.6982 34.4121 33.8584 34.3516 34.0693 34.3516C34.2764 34.3516 34.4346 34.4121 34.5439 34.5332C34.6572 34.6543 34.7139 34.8027 34.7139 34.9785C34.7139 35.1465 34.6572 35.291 34.5439 35.4121C34.4346 35.5293 34.2764 35.5879 34.0693 35.5879C33.8584 35.5879 33.6982 35.5293 33.5889 35.4121C33.4834 35.291 33.4307 35.1465 33.4307 34.9785ZM37.4268 38.0137V43H36.3428V36.6602H37.3682L37.4268 38.0137ZM37.1689 39.5898L36.7178 39.5723C36.7217 39.1387 36.7861 38.7383 36.9111 38.3711C37.0361 38 37.2119 37.6777 37.4385 37.4043C37.665 37.1309 37.9346 36.9199 38.2471 36.7715C38.5635 36.6191 38.9131 36.543 39.2959 36.543C39.6084 36.543 39.8896 36.5859 40.1396 36.6719C40.3896 36.7539 40.6025 36.8867 40.7783 37.0703C40.958 37.2539 41.0947 37.4922 41.1885 37.7852C41.2822 38.0742 41.3291 38.4277 41.3291 38.8457V43H40.2393V38.834C40.2393 38.502 40.1904 38.2363 40.0928 38.0371C39.9951 37.834 39.8525 37.6875 39.665 37.5977C39.4775 37.5039 39.2471 37.457 38.9736 37.457C38.7041 37.457 38.458 37.5137 38.2354 37.627C38.0166 37.7402 37.8271 37.8965 37.667 38.0957C37.5107 38.2949 37.3877 38.5234 37.2979 38.7812C37.2119 39.0352 37.1689 39.3047 37.1689 39.5898ZM47.083 36.6602H48.0674V42.8652C48.0674 43.4238 47.9541 43.9004 47.7275 44.2949C47.501 44.6895 47.1846 44.9883 46.7783 45.1914C46.376 45.3984 45.9111 45.502 45.3838 45.502C45.165 45.502 44.9072 45.4668 44.6104 45.3965C44.3174 45.3301 44.0283 45.2148 43.7432 45.0508C43.4619 44.8906 43.2256 44.6738 43.0342 44.4004L43.6025 43.7559C43.8682 44.0762 44.1455 44.2988 44.4346 44.4238C44.7275 44.5488 45.0166 44.6113 45.3018 44.6113C45.6455 44.6113 45.9424 44.5469 46.1924 44.418C46.4424 44.2891 46.6357 44.0977 46.7725 43.8438C46.9131 43.5938 46.9834 43.2852 46.9834 42.918V38.0547L47.083 36.6602ZM42.7178 39.9004V39.7773C42.7178 39.293 42.7744 38.8535 42.8877 38.459C43.0049 38.0605 43.1709 37.7188 43.3857 37.4336C43.6045 37.1484 43.8682 36.9297 44.1768 36.7773C44.4854 36.6211 44.833 36.543 45.2197 36.543C45.6182 36.543 45.9658 36.6133 46.2627 36.7539C46.5635 36.8906 46.8174 37.0918 47.0244 37.3574C47.2354 37.6191 47.4014 37.9355 47.5225 38.3066C47.6436 38.6777 47.7275 39.0977 47.7744 39.5664V40.1055C47.7314 40.5703 47.6475 40.9883 47.5225 41.3594C47.4014 41.7305 47.2354 42.0469 47.0244 42.3086C46.8174 42.5703 46.5635 42.7715 46.2627 42.9121C45.9619 43.0488 45.6104 43.1172 45.208 43.1172C44.8291 43.1172 44.4854 43.0371 44.1768 42.877C43.8721 42.7168 43.6104 42.4922 43.3916 42.2031C43.1729 41.9141 43.0049 41.5742 42.8877 41.1836C42.7744 40.7891 42.7178 40.3613 42.7178 39.9004ZM43.8018 39.7773V39.9004C43.8018 40.2168 43.833 40.5137 43.8955 40.791C43.9619 41.0684 44.0615 41.3125 44.1943 41.5234C44.3311 41.7344 44.5049 41.9004 44.7158 42.0215C44.9268 42.1387 45.1787 42.1973 45.4717 42.1973C45.8311 42.1973 46.1279 42.1211 46.3623 41.9688C46.5967 41.8164 46.7822 41.6152 46.9189 41.3652C47.0596 41.1152 47.1689 40.8438 47.2471 40.5508V39.1387C47.2041 38.9238 47.1377 38.7168 47.0479 38.5176C46.9619 38.3145 46.8486 38.1348 46.708 37.9785C46.5713 37.8184 46.4014 37.6914 46.1982 37.5977C45.9951 37.5039 45.7568 37.457 45.4834 37.457C45.1865 37.457 44.9307 37.5195 44.7158 37.6445C44.5049 37.7656 44.3311 37.9336 44.1943 38.1484C44.0615 38.3594 43.9619 38.6055 43.8955 38.8867C43.833 39.1641 43.8018 39.4609 43.8018 39.7773Z" fill="#F2F2F2"/>
</svg>
