<svg width="80" height="44" viewBox="0 0 80 44" fill="none" xmlns="http://www.w3.org/2000/svg">
<g clip-path="url(#clip0_577_444)">
<path d="M51.1077 3.55494H48.2215V1H33.7723V3.55494H30.8861C29.2972 3.55494 28 4.70102 28 6.10987V7.38454C28 10.6439 30.7682 13.3051 34.3371 13.702C34.7964 14.658 35.5101 15.5022 36.4163 16.1619C37.3287 16.8216 38.4025 17.2744 39.5507 17.4813V21.4451H33.7723V24H48.2215V21.4451H42.4431V17.4813C43.5913 17.2744 44.6713 16.8216 45.5775 16.1619C46.4836 15.5022 47.1974 14.658 47.6567 13.702C51.2256 13.3051 54 10.6439 54 7.38454V6.10987C54 4.70102 52.6966 3.55494 51.1077 3.55494ZM30.8861 7.38454V6.10987H33.7723V10.9905C32.1027 10.4538 30.8861 9.05056 30.8861 7.38454ZM51.1077 7.38454C51.1077 9.05056 49.8973 10.4538 48.2215 10.9905V6.10987H51.1077V7.38454Z" fill="#F2F2F2"/>
<path d="M16 29.6162H19.433C20.2115 29.6162 20.8699 29.7417 21.4081 29.9985C21.9515 30.2495 22.3591 30.6261 22.6412 31.1282C22.9234 31.6189 23.0697 32.2294 23.0697 32.954C23.0697 33.4618 22.9704 33.9296 22.7771 34.3518C22.5838 34.7684 22.3121 35.1278 21.9515 35.4188C21.591 35.7098 21.1677 35.9266 20.6661 36.0692L20.2794 36.229H17.0555L17.0398 35.0308H19.4748C19.9712 35.0308 20.3839 34.9395 20.7079 34.7569C21.0371 34.5687 21.2827 34.3176 21.4499 33.9981C21.6171 33.6843 21.7007 33.3362 21.7007 32.954C21.7007 32.5261 21.6223 32.1495 21.4656 31.83C21.3088 31.5105 21.0632 31.2594 20.7236 31.0882C20.3892 30.9114 19.9607 30.8201 19.433 30.8201H17.3742V40.7421H16V29.6162ZM22.0612 40.7421L19.5427 35.6984L20.9744 35.687L23.5295 40.6508V40.7421H22.0612ZM29.34 39.3271V35.0707C29.34 34.7455 29.2773 34.4603 29.1518 34.2206C29.0369 33.9753 28.854 33.787 28.6136 33.6558C28.3681 33.5245 28.0702 33.4561 27.7149 33.4561C27.3805 33.4561 27.0879 33.5188 26.8371 33.6386C26.5915 33.7642 26.3982 33.9239 26.2519 34.1236C26.116 34.3233 26.0481 34.5344 26.0481 34.7626H24.7261C24.7261 34.466 24.7993 34.175 24.9403 33.884C25.0866 33.593 25.2904 33.3305 25.5569 33.0966C25.8234 32.857 26.1474 32.6687 26.5236 32.5318C26.905 32.3891 27.3282 32.3207 27.7933 32.3207C28.3524 32.3207 28.8488 32.4234 29.272 32.6231C29.7057 32.8285 30.0454 33.1366 30.2857 33.5474C30.5313 33.9582 30.6567 34.466 30.6567 35.0879V38.9391C30.6567 39.213 30.6776 39.504 30.7194 39.8178C30.7664 40.1259 30.8344 40.3941 30.9284 40.6166V40.7421H29.5542C29.4863 40.5766 29.434 40.3598 29.3974 40.0917C29.3556 39.8178 29.34 39.5611 29.34 39.3271ZM29.5646 35.7269L29.5803 36.7197H28.2479C27.8717 36.7197 27.5373 36.7539 27.2446 36.8224C26.9468 36.8794 26.7012 36.9764 26.5027 37.1019C26.3041 37.2275 26.1526 37.3929 26.0481 37.5812C25.9436 37.7695 25.8913 37.992 25.8913 38.2488C25.8913 38.5112 25.9436 38.7452 26.0533 38.962C26.163 39.1731 26.325 39.3442 26.5445 39.4698C26.7692 39.5953 27.0409 39.6523 27.3648 39.6523C27.7672 39.6523 28.1225 39.5611 28.436 39.3785C28.7443 39.1959 28.9846 38.9734 29.1675 38.7052C29.3504 38.4428 29.4497 38.186 29.4654 37.935L30.0297 38.6139C29.9983 38.8307 29.9043 39.0647 29.758 39.3271C29.6117 39.5839 29.4131 39.8349 29.1675 40.0746C28.9272 40.3085 28.6346 40.5025 28.3001 40.6622C27.9657 40.8163 27.5895 40.8905 27.1715 40.8905C26.649 40.8905 26.1892 40.782 25.7973 40.5652C25.4054 40.3427 25.1023 40.0517 24.8829 39.6866C24.6686 39.3157 24.5641 38.8992 24.5641 38.437C24.5641 37.9977 24.6425 37.604 24.8045 37.2731C24.9665 36.9308 25.2016 36.6455 25.5047 36.423C25.8077 36.1948 26.1735 36.0179 26.6019 35.9038C27.0304 35.7839 27.5059 35.7269 28.0337 35.7269H29.5646ZM34.0479 34.2377V40.7421H32.7311V32.469H33.9747L34.0479 34.2377ZM33.7344 36.2917L33.1857 36.2689C33.1909 35.7041 33.2693 35.1792 33.4208 34.7056C33.5724 34.2206 33.7866 33.7984 34.0635 33.4447C34.3353 33.0852 34.6644 32.8113 35.0459 32.6173C35.4325 32.4176 35.8558 32.3207 36.3208 32.3207C36.7023 32.3207 37.0419 32.372 37.345 32.4861C37.6533 32.5945 37.9093 32.7657 38.1235 33.0053C38.343 33.245 38.5102 33.5588 38.6251 33.941C38.7349 34.3176 38.7924 34.7741 38.7924 35.3218V40.7421H37.4704V35.3047C37.4704 34.8711 37.4077 34.5287 37.2927 34.2663C37.1725 34.0038 37.0001 33.8098 36.7702 33.6957C36.5403 33.5702 36.2634 33.5131 35.9289 33.5131C35.5997 33.5131 35.3019 33.5873 35.0302 33.7299C34.7637 33.8783 34.5338 34.0837 34.3405 34.3461C34.1524 34.6029 34.0008 34.8996 33.8911 35.2362C33.7866 35.5671 33.7344 35.9209 33.7344 36.2917ZM42.1208 29V40.7421H40.7936V29H42.1208ZM46.8287 32.469L43.4689 36.3317L41.5878 38.4256L41.4781 36.9194L42.8262 35.1906L45.2194 32.469H46.8287ZM45.6269 40.7421L42.8785 36.7995L43.5577 35.5386L47.1788 40.7421H45.6269ZM49.6242 32.469V40.7421H48.297V32.469H49.6242ZM48.1977 30.2781C48.1977 30.0498 48.2657 29.8558 48.3911 29.6961C48.5217 29.542 48.7202 29.4622 48.9763 29.4622C49.2271 29.4622 49.4204 29.542 49.5511 29.6961C49.6921 29.8558 49.7601 30.0498 49.7601 30.2781C49.7601 30.4949 49.6921 30.6889 49.5511 30.8429C49.4204 30.997 49.2271 31.0711 48.9763 31.0711C48.7202 31.0711 48.5217 30.997 48.3911 30.8429C48.2657 30.6889 48.1977 30.4949 48.1977 30.2781ZM53.0572 34.2377V40.7421H51.7404V32.469H52.9892L53.0572 34.2377ZM52.7437 36.2917L52.195 36.2689C52.2002 35.7041 52.2786 35.1792 52.4301 34.7056C52.5817 34.2206 52.7959 33.7984 53.0728 33.4447C53.3498 33.0852 53.6737 32.8113 54.0552 32.6173C54.4419 32.4176 54.8651 32.3207 55.3301 32.3207C55.7116 32.3207 56.0512 32.372 56.3595 32.4861C56.6626 32.5945 56.9186 32.7657 57.1328 33.0053C57.3523 33.245 57.5195 33.5588 57.6345 33.941C57.7442 34.3176 57.8017 34.7741 57.8017 35.3218V40.7421H56.4797V35.3047C56.4797 34.8711 56.417 34.5287 56.302 34.2663C56.1818 34.0038 56.0094 33.8098 55.7795 33.6957C55.5496 33.5702 55.2727 33.5131 54.9382 33.5131C54.6091 33.5131 54.3112 33.5873 54.0395 33.7299C53.773 33.8783 53.5431 34.0837 53.3498 34.3461C53.1617 34.6029 53.0101 34.8996 52.9004 35.2362C52.7959 35.5671 52.7437 35.9209 52.7437 36.2917ZM64.7982 32.469H66V40.5652C66 41.2898 65.8589 41.9118 65.582 42.431C65.3103 42.9445 64.9236 43.3324 64.4324 43.5949C63.9413 43.8688 63.377 44 62.7343 44C62.4678 44 62.1543 43.9544 61.7937 43.8631C61.4384 43.7775 61.0883 43.6291 60.7382 43.4123C60.3986 43.2069 60.1112 42.9216 59.8761 42.5679L60.5658 41.7235C60.8898 42.1457 61.2294 42.431 61.5795 42.5964C61.9348 42.7619 62.2901 42.8418 62.635 42.8418C63.053 42.8418 63.4135 42.7562 63.7166 42.5907C64.0197 42.4196 64.2548 42.1685 64.422 41.8376C64.5944 41.5124 64.678 41.113 64.678 40.6337V34.2891L64.7982 32.469ZM59.4946 36.6968V36.5371C59.4946 35.9038 59.5625 35.3332 59.6984 34.8197C59.8395 34.3005 60.0433 33.8498 60.3045 33.4789C60.571 33.108 60.8898 32.8227 61.266 32.6231C61.6422 32.4234 62.0654 32.3207 62.5357 32.3207C63.0216 32.3207 63.4397 32.4119 63.8054 32.5945C64.1712 32.7714 64.4795 33.0339 64.7303 33.3819C64.9863 33.7242 65.1901 34.135 65.3364 34.62C65.4827 35.105 65.582 35.6527 65.6395 36.2632V36.965C65.5872 37.5698 65.4879 38.1175 65.3364 38.6025C65.1901 39.0818 64.9863 39.4983 64.7303 39.8406C64.4795 40.1773 64.1712 40.4397 63.8054 40.6223C63.4397 40.8049 63.0112 40.8905 62.52 40.8905C62.0602 40.8905 61.6422 40.7878 61.266 40.5766C60.895 40.3712 60.5762 40.0803 60.3098 39.698C60.0485 39.3214 59.8395 38.8821 59.6984 38.3686C59.5625 37.8551 59.4946 37.2959 59.4946 36.6968ZM60.8114 36.5371V36.6968C60.8114 37.1076 60.8479 37.4956 60.9263 37.8608C61.0047 38.2202 61.1249 38.5397 61.2869 38.8136C61.4541 39.0875 61.6683 39.3043 61.9243 39.4641C62.1804 39.6181 62.4834 39.6923 62.844 39.6923C63.2777 39.6923 63.6382 39.5953 63.9256 39.3956C64.2078 39.1959 64.4324 38.9334 64.5996 38.6082C64.7721 38.283 64.9027 37.9293 65.002 37.547V35.7041C64.9497 35.4245 64.8661 35.1563 64.7564 34.8939C64.6519 34.6314 64.516 34.3975 64.3436 34.1921C64.1764 33.981 63.9726 33.8155 63.727 33.6957C63.4762 33.5702 63.1888 33.5131 62.8544 33.5131C62.4939 33.5131 62.1856 33.593 61.9243 33.7528C61.6683 33.9125 61.4541 34.135 61.2869 34.4146C61.1249 34.6885 61.0047 35.008 60.9263 35.3731C60.8479 35.7383 60.8114 36.1263 60.8114 36.5371Z" fill="#F2F2F2"/>
</g>
<defs>
<clipPath id="clip0_577_444">
<rect width="80" height="43.85" fill="white"/>
</clipPath>
</defs>
</svg>
