<svg width="40" height="40" viewBox="0 0 40 40" fill="none" xmlns="http://www.w3.org/2000/svg">
<g clip-path="url(#clip0_722_431)">
<path d="M36.4672 4.44444H31.9088V0H9.1168V4.44444H4.5584C2.05128 4.44444 0 6.44444 0 8.88888V11.1112C0 16.7778 4.37606 21.4 10.0057 22.0888C10.7265 23.7541 11.8523 25.2233 13.2859 26.3693C14.7194 27.5153 16.4175 28.3038 18.2337 28.6666V35.5556H9.1168V40H31.9088V35.5556H22.792V28.6666C24.6081 28.3038 26.3062 27.5153 27.7398 26.3693C29.1733 25.2233 30.2991 23.7541 31.0199 22.0888C36.6495 21.4 41.0256 16.7778 41.0256 11.1112V8.88888C41.0256 6.44444 38.9744 4.44444 36.4672 4.44444ZM4.5584 11.1112V8.88888H9.1168V17.3778C6.47292 16.4444 4.5584 14 4.5584 11.1112ZM36.4672 11.1112C36.4672 14 34.5527 16.4444 31.9088 17.3778V8.88888H36.4672V11.1112Z" fill="black"/>
</g>
<defs>
<clipPath id="clip0_722_431">
<rect width="40" height="40" fill="white"/>
</clipPath>
</defs>
</svg>
