<svg width="39" height="38" viewBox="0 0 39 38" fill="none" xmlns="http://www.w3.org/2000/svg">
<path d="M34.0082 4.22222H29.786V0H8.67491V4.22222H4.45269C2.13047 4.22222 0.230469 6.12222 0.230469 8.44444V10.5556C0.230469 15.9389 4.2838 20.33 9.49825 20.9844C10.1659 22.5664 11.2087 23.9621 12.5365 25.0508C13.8643 26.1395 15.4372 26.8886 17.1194 27.2333V33.7778H8.67491V38H29.786V33.7778H21.3416V27.2333C23.0237 26.8886 24.5966 26.1395 25.9245 25.0508C27.2523 23.9621 28.295 22.5664 28.9627 20.9844C34.1771 20.33 38.2305 15.9389 38.2305 10.5556V8.44444C38.2305 6.12222 36.3305 4.22222 34.0082 4.22222ZM4.45269 10.5556V8.44444H8.67491V16.5089C6.22602 15.6222 4.45269 13.3 4.45269 10.5556ZM34.0082 10.5556C34.0082 13.3 32.2349 15.6222 29.786 16.5089V8.44444H34.0082V10.5556Z" fill="black"/>
</svg>
