<svg width="40" height="40" viewBox="0 0 40 40" fill="none" xmlns="http://www.w3.org/2000/svg">
<g clip-path="url(#clip0_280_599)">
<path d="M0 0.0687981C0.003125 0.109425 0.16875 1.70005 0.36875 3.60317L0.734375 7.06567L1.65625 7.9438C10.3906 16.2876 15.2188 20.9157 15.2188 20.9375C15.2188 20.9594 11.8531 24.7438 11.5938 25.0126L11.5063 25.1001L9.85625 23.8594C8.94688 23.1751 8.1875 22.6032 8.17188 22.5907C8.15 22.5751 7.66563 23.1 6.9375 23.9313C6.275 24.6813 5.73125 25.3032 5.725 25.3126C5.72188 25.3251 5.79688 25.3688 5.89688 25.4126C6.24063 25.5626 9.73438 27.2282 9.7625 27.2532C9.81563 27.3001 9.60625 27.4813 9.43125 27.5438C9.28125 27.5938 9.19375 27.6563 8.90313 27.9063C8.8125 27.9844 8.8125 27.9844 8.85625 28.1438L8.89688 28.3032L8.69688 28.5344C8.44688 28.8251 8.44375 28.8282 8.21875 28.8751C8.04688 28.9126 8.0125 28.9344 7.84063 29.1188L7.65 29.3219L7.66563 29.4907L7.68438 29.6563L7.46563 29.9344L7.24688 30.2094L7.03438 30.2251C6.83125 30.2407 6.81563 30.2469 6.69688 30.3782C6.39375 30.7063 6.40313 30.6876 6.45625 30.8688L6.50313 31.0282L6.275 31.2469C6.125 31.3938 6.00625 31.4782 5.93125 31.5001C5.86563 31.5157 5.75938 31.5438 5.69375 31.5626C5.61875 31.5813 5.51875 31.6532 5.39688 31.7751L5.21875 31.9563L5.26875 32.1219L5.31563 32.2876L5.18125 32.4594C5.10625 32.5532 5.02813 32.6532 5.00625 32.6813C4.98125 32.7126 4.89063 32.7376 4.74375 32.7532C4.525 32.7782 4.51563 32.7844 4.34375 32.9532C4.25 33.0469 4.15938 33.1251 4.14375 33.1251C4.13125 33.1251 3.57188 32.7094 2.90313 32.2032C2.23438 31.6938 1.66875 31.2719 1.64688 31.2657C1.60625 31.2501 0 33.6469 0 33.7219C0 33.7469 0.4125 34.0594 0.9125 34.4219C1.4125 34.7813 1.84063 35.0938 1.86563 35.1126C1.90625 35.1376 1.85938 35.2501 1.58125 35.8063C1.4 36.1719 1.25 36.4751 1.25 36.4813C1.25 36.5001 5.3625 39.4688 5.38438 39.4688C5.39375 39.4688 5.675 39.3032 6.00625 39.1001C6.3375 38.8969 6.64063 38.7126 6.68125 38.6907C6.74688 38.6563 6.82188 38.7032 7.6625 39.3157C8.16563 39.6813 8.59688 39.9844 8.625 39.9907C8.6625 40.0001 10.5688 38.5001 10.7906 38.2813C10.8469 38.2282 10.8125 38.1969 9.72188 37.3719C9.10313 36.9001 8.60938 36.5094 8.625 36.5063C8.64375 36.5001 8.7375 36.4094 8.8375 36.3063C8.9875 36.1501 9.02188 36.0938 9.04688 35.9532C9.075 35.8063 9.10938 35.7501 9.32813 35.5063L9.575 35.2251L9.8125 35.2032L10.0531 35.1813L10.2125 34.9657C10.35 34.7844 10.375 34.7313 10.375 34.6157C10.375 34.4907 10.3906 34.4688 10.6031 34.2563L10.8281 34.0313L11.0781 34.0126L11.3281 33.9907L11.5406 33.8032C11.6813 33.6813 11.7469 33.6001 11.7375 33.5657C11.7281 33.5376 11.7125 33.4532 11.7031 33.3751L11.6813 33.2313L11.9188 33.0282C12.1344 32.8407 12.175 32.8188 12.3906 32.7719C12.6125 32.7251 12.6344 32.7126 12.7969 32.5407C12.9625 32.3626 12.9656 32.3563 12.9688 32.1719L12.9719 31.9844L13.2375 31.7501C13.4781 31.5407 13.5281 31.5094 13.7281 31.4594C13.9281 31.4094 13.975 31.3813 14.1313 31.2251C14.3063 31.0563 14.3125 31.0438 14.3125 30.8876C14.3125 30.7719 14.3281 30.7126 14.3688 30.6782C14.425 30.6282 14.4531 30.6532 14.9438 31.1501C15.225 31.4376 15.85 32.0751 16.3281 32.5688C16.8094 33.0657 17.2094 33.4688 17.2188 33.4688C17.2281 33.4688 17.8063 32.9001 18.5094 32.2094L19.7813 30.9532L18.1875 29.8594C17.3125 29.2563 16.5969 28.7563 16.6031 28.7438C16.6125 28.7094 19.975 25.5001 20 25.5001C20.025 25.5001 23.3875 28.7094 23.3969 28.7438C23.4031 28.7563 22.6875 29.2563 21.8125 29.8594L20.2188 30.9532L21.4906 32.2094C22.1938 32.9001 22.7719 33.4688 22.7813 33.4688C22.7906 33.4688 23.1906 33.0657 23.6719 32.5688C24.15 32.0751 24.775 31.4376 25.0563 31.1501C25.5469 30.6532 25.575 30.6282 25.6313 30.6782C25.6719 30.7126 25.6875 30.7719 25.6875 30.8876C25.6875 31.0438 25.6938 31.0563 25.8688 31.2251C26.025 31.3813 26.0719 31.4094 26.2719 31.4594C26.4719 31.5094 26.5219 31.5407 26.7625 31.7501L27.0281 31.9844L27.0313 32.1719C27.0344 32.3563 27.0375 32.3626 27.2031 32.5407C27.3656 32.7126 27.3875 32.7251 27.6094 32.7719C27.825 32.8188 27.8656 32.8407 28.0813 33.0282L28.3188 33.2313L28.2969 33.3751C28.2875 33.4532 28.2719 33.5376 28.2625 33.5657C28.2531 33.6001 28.3188 33.6813 28.4594 33.8032L28.6719 33.9907L28.9219 34.0126L29.1719 34.0313L29.3969 34.2563C29.6094 34.4688 29.625 34.4907 29.625 34.6157C29.625 34.7313 29.65 34.7844 29.7875 34.9657L29.9469 35.1813L30.1875 35.2032L30.425 35.2251L30.6719 35.5063C30.8906 35.7501 30.925 35.8063 30.9531 35.9532C30.9781 36.0938 31.0125 36.1501 31.1625 36.3063C31.2625 36.4094 31.3563 36.5001 31.375 36.5063C31.3906 36.5094 30.8969 36.9001 30.2781 37.3719C29.1875 38.1969 29.1531 38.2282 29.2094 38.2813C29.4313 38.5001 31.3375 40.0001 31.375 39.9907C31.4031 39.9844 31.8344 39.6813 32.3375 39.3157C33.1781 38.7032 33.2531 38.6563 33.3188 38.6907C33.3594 38.7126 33.6625 38.8969 33.9938 39.1001C34.325 39.3032 34.6063 39.4688 34.6156 39.4688C34.6375 39.4688 38.75 36.5001 38.75 36.4813C38.75 36.4751 38.6 36.1719 38.4188 35.8063C38.1406 35.2501 38.0938 35.1376 38.1344 35.1126C38.1594 35.0938 38.5875 34.7813 39.0875 34.4219C39.5875 34.0594 40 33.7469 40 33.7219C40 33.6469 38.3938 31.2501 38.3531 31.2657C38.3313 31.2719 37.7656 31.6938 37.0969 32.2032C36.4281 32.7094 35.8688 33.1251 35.8563 33.1251C35.8406 33.1251 35.75 33.0469 35.6563 32.9532C35.4844 32.7844 35.475 32.7782 35.2563 32.7532C35.1094 32.7376 35.0188 32.7126 34.9938 32.6813C34.9719 32.6532 34.8938 32.5532 34.8188 32.4594L34.6844 32.2876L34.7313 32.1219L34.7813 31.9563L34.6031 31.7751C34.4813 31.6532 34.3813 31.5813 34.3063 31.5626C34.2406 31.5438 34.1344 31.5157 34.0719 31.5001C33.9938 31.4782 33.875 31.3938 33.725 31.2469L33.4969 31.0282L33.5438 30.8688C33.5969 30.6876 33.6063 30.7063 33.3031 30.3782C33.1844 30.2469 33.1688 30.2407 32.9656 30.2251L32.7531 30.2094L32.5344 29.9344L32.3156 29.6563L32.3344 29.4907L32.35 29.3219L32.1594 29.1188C31.9875 28.9344 31.9531 28.9126 31.7813 28.8751C31.5563 28.8282 31.5531 28.8251 31.3031 28.5344L31.1031 28.3032L31.1438 28.1438C31.1875 27.9844 31.1875 27.9844 31.0969 27.9063C30.8063 27.6563 30.7188 27.5938 30.5688 27.5438C30.3938 27.4813 30.1844 27.3001 30.2375 27.2532C30.2656 27.2282 33.7594 25.5626 34.1031 25.4126C34.2031 25.3688 34.2781 25.3251 34.275 25.3126C34.2688 25.3032 33.725 24.6813 33.0625 23.9313C32.3344 23.1 31.85 22.5751 31.8281 22.5907C31.8125 22.6032 31.0531 23.1751 30.1438 23.8594L28.4938 25.1001L28.4063 25.0126C28.1469 24.7438 24.7813 20.9594 24.7813 20.9375C24.7813 20.9157 32.8219 13.2126 38.7031 7.60318L39.2656 7.06567L39.6313 3.60317C39.8313 1.70005 39.9969 0.109425 40 0.0687981C40 0.0219231 39.9813 4.95911e-05 39.9406 4.95911e-05C39.9 4.95911e-05 32.6813 2.15318 32.0406 2.3563C31.9906 2.37193 31.9719 2.36255 31.9625 2.32505C31.9563 2.29067 29.8656 4.60317 26 8.92192C22.725 12.5782 20.0375 15.5875 20.025 15.6063C20.0063 15.6313 19.9938 15.6313 19.9781 15.6063C19.9625 15.5875 17.275 12.5782 14 8.92192C10.1344 4.60317 8.04375 2.29067 8.0375 2.32505C8.02813 2.36255 8.00938 2.37193 7.95938 2.3563C7.31875 2.15318 0.1 4.95911e-05 0.059375 4.95911e-05C0.01875 4.95911e-05 0 0.0219231 0 0.0687981Z" fill="black"/>
</g>
<defs>
<clipPath id="clip0_280_599">
<rect width="40" height="40" fill="white"/>
</clipPath>
</defs>
</svg>
